<mxfile host="app.diagrams.net" modified="2024-05-24T07:01:48.191Z" agent="Mozilla/5.0 (Windows NT 10.0; Win64; x64) AppleWebKit/537.36 (KHTML, like Gecko) Chrome/124.0.0.0 Safari/537.36 Edg/124.0.0.0" etag="J7W8e5zgqR2SWB3jKB9s" version="24.2.2" type="github">
  <diagram name="Page-1" id="_FmueXQ6HJL12wonFwmd">
    <mxGraphModel dx="4148" dy="3370" grid="1" gridSize="10" guides="1" tooltips="1" connect="1" arrows="1" fold="1" page="1" pageScale="1" pageWidth="850" pageHeight="1100" math="0" shadow="0">
      <root>
        <mxCell id="0" />
        <mxCell id="1" parent="0" />
        <mxCell id="yXYll9jXDUxNb2Ua6R8a-2" value="Azure" style="rounded=1;whiteSpace=wrap;html=1;verticalAlign=top;align=center;" vertex="1" parent="1">
          <mxGeometry x="-480" y="-690" width="1480" height="800" as="geometry" />
        </mxCell>
        <mxCell id="yXYll9jXDUxNb2Ua6R8a-74" value="Call Handler" style="rounded=1;whiteSpace=wrap;html=1;verticalAlign=top;align=left;arcSize=6;" vertex="1" parent="1">
          <mxGeometry x="115" y="-640" width="830" height="210" as="geometry" />
        </mxCell>
        <mxCell id="yXYll9jXDUxNb2Ua6R8a-3" value="Genesys" style="rounded=1;whiteSpace=wrap;html=1;verticalAlign=top;align=center;" vertex="1" parent="1">
          <mxGeometry x="-920" y="-690" width="290" height="800" as="geometry" />
        </mxCell>
        <mxCell id="yXYll9jXDUxNb2Ua6R8a-4" value="" style="fontColor=#0066CC;verticalAlign=top;verticalLabelPosition=bottom;labelPosition=center;align=center;html=1;outlineConnect=0;fillColor=#CCCCCC;strokeColor=#6881B3;gradientColor=none;gradientDirection=north;strokeWidth=2;shape=mxgraph.networks.phone_2;" vertex="1" parent="1">
          <mxGeometry x="-860" y="-366" width="80" height="60" as="geometry" />
        </mxCell>
        <mxCell id="yXYll9jXDUxNb2Ua6R8a-5" value="Customer&lt;div&gt;Language: French&lt;/div&gt;" style="verticalLabelPosition=bottom;html=1;verticalAlign=top;align=center;strokeColor=none;fillColor=#00BEF2;shape=mxgraph.azure.user;" vertex="1" parent="1">
          <mxGeometry x="-1020" y="-555" width="47.5" height="50" as="geometry" />
        </mxCell>
        <mxCell id="yXYll9jXDUxNb2Ua6R8a-6" value="" style="endArrow=classic;html=1;rounded=0;exitX=0.87;exitY=0.65;exitDx=0;exitDy=0;exitPerimeter=0;entryX=0;entryY=0.5;entryDx=0;entryDy=0;entryPerimeter=0;" edge="1" parent="1" source="yXYll9jXDUxNb2Ua6R8a-5" target="yXYll9jXDUxNb2Ua6R8a-4">
          <mxGeometry width="50" height="50" relative="1" as="geometry">
            <mxPoint x="-630" y="-200" as="sourcePoint" />
            <mxPoint x="-580" y="-250" as="targetPoint" />
          </mxGeometry>
        </mxCell>
        <mxCell id="yXYll9jXDUxNb2Ua6R8a-7" value="Audio Hook" style="html=1;whiteSpace=wrap;strokeColor=none;fillColor=#0079D6;labelPosition=center;verticalLabelPosition=middle;verticalAlign=top;align=center;fontSize=12;outlineConnect=0;spacingTop=-6;fontColor=#FFFFFF;sketch=0;shape=mxgraph.sitemap.audio;" vertex="1" parent="1">
          <mxGeometry x="-755" y="-592.5" width="80" height="75" as="geometry" />
        </mxCell>
        <mxCell id="yXYll9jXDUxNb2Ua6R8a-92" value="" style="edgeStyle=orthogonalEdgeStyle;rounded=0;orthogonalLoop=1;jettySize=auto;html=1;" edge="1" parent="1" source="yXYll9jXDUxNb2Ua6R8a-8">
          <mxGeometry relative="1" as="geometry">
            <mxPoint x="283" y="-555" as="targetPoint" />
          </mxGeometry>
        </mxCell>
        <mxCell id="yXYll9jXDUxNb2Ua6R8a-8" value="Audio Transcription&amp;nbsp;&lt;div style=&quot;font-size: 14px;&quot;&gt;Orchestrator&lt;/div&gt;" style="image;aspect=fixed;html=1;points=[];align=center;fontSize=14;image=img/lib/azure2/iot/Function_Apps.svg;" vertex="1" parent="1">
          <mxGeometry x="135" y="-585" width="68" height="60" as="geometry" />
        </mxCell>
        <mxCell id="yXYll9jXDUxNb2Ua6R8a-9" value="Audio Stream over&lt;div style=&quot;font-size: 13px;&quot;&gt;Websocket&lt;/div&gt;" style="endArrow=classic;startArrow=classic;html=1;rounded=0;exitX=1;exitY=0.5;exitDx=0;exitDy=0;exitPerimeter=0;fontSize=13;" edge="1" parent="1" source="yXYll9jXDUxNb2Ua6R8a-13" target="yXYll9jXDUxNb2Ua6R8a-8">
          <mxGeometry x="0.0049" width="50" height="50" relative="1" as="geometry">
            <mxPoint x="-315" y="-390" as="sourcePoint" />
            <mxPoint x="-265" y="-440" as="targetPoint" />
            <mxPoint as="offset" />
          </mxGeometry>
        </mxCell>
        <mxCell id="yXYll9jXDUxNb2Ua6R8a-62" style="edgeStyle=orthogonalEdgeStyle;rounded=0;orthogonalLoop=1;jettySize=auto;html=1;entryX=0;entryY=0.5;entryDx=0;entryDy=0;" edge="1" parent="1" source="yXYll9jXDUxNb2Ua6R8a-10" target="yXYll9jXDUxNb2Ua6R8a-59">
          <mxGeometry relative="1" as="geometry" />
        </mxCell>
        <mxCell id="yXYll9jXDUxNb2Ua6R8a-10" value="Speech to Text&lt;div style=&quot;font-size: 14px;&quot;&gt;eg. to French&lt;/div&gt;" style="image;aspect=fixed;html=1;points=[];align=center;fontSize=14;image=img/lib/azure2/ai_machine_learning/Speech_Services.svg;" vertex="1" parent="1">
          <mxGeometry x="365" y="-589" width="68" height="68" as="geometry" />
        </mxCell>
        <mxCell id="yXYll9jXDUxNb2Ua6R8a-11" value="Near real-time&amp;nbsp;&lt;div style=&quot;font-size: 13px;&quot;&gt;Transcription&lt;/div&gt;" style="endArrow=classic;html=1;rounded=0;exitX=1.017;exitY=0.527;exitDx=0;exitDy=0;exitPerimeter=0;fontSize=13;" edge="1" parent="1" source="yXYll9jXDUxNb2Ua6R8a-8" target="yXYll9jXDUxNb2Ua6R8a-10">
          <mxGeometry width="50" height="50" relative="1" as="geometry">
            <mxPoint x="-81" y="-395" as="sourcePoint" />
            <mxPoint x="-31" y="-445" as="targetPoint" />
          </mxGeometry>
        </mxCell>
        <mxCell id="yXYll9jXDUxNb2Ua6R8a-14" value="" style="endArrow=classic;startArrow=classic;html=1;rounded=0;exitX=1;exitY=0.75;exitDx=0;exitDy=0;" edge="1" parent="1" source="yXYll9jXDUxNb2Ua6R8a-17" target="yXYll9jXDUxNb2Ua6R8a-13">
          <mxGeometry width="50" height="50" relative="1" as="geometry">
            <mxPoint x="-220" y="-550" as="sourcePoint" />
            <mxPoint x="75" y="-555" as="targetPoint" />
          </mxGeometry>
        </mxCell>
        <mxCell id="yXYll9jXDUxNb2Ua6R8a-13" value="Audio Stream Receiver" style="image;aspect=fixed;html=1;points=[];align=center;fontSize=12;image=img/lib/azure2/iot/Function_Apps.svg;" vertex="1" parent="1">
          <mxGeometry x="-105" y="-580" width="68" height="60" as="geometry" />
        </mxCell>
        <mxCell id="yXYll9jXDUxNb2Ua6R8a-18" value="" style="endArrow=classic;startArrow=classic;html=1;rounded=0;exitX=1;exitY=0.5;exitDx=0;exitDy=0;exitPerimeter=0;entryX=0;entryY=0.5;entryDx=0;entryDy=0;" edge="1" parent="1" source="yXYll9jXDUxNb2Ua6R8a-7" target="yXYll9jXDUxNb2Ua6R8a-17">
          <mxGeometry width="50" height="50" relative="1" as="geometry">
            <mxPoint x="-660" y="-360" as="sourcePoint" />
            <mxPoint x="-580" y="-516.6304347826085" as="targetPoint" />
          </mxGeometry>
        </mxCell>
        <mxCell id="yXYll9jXDUxNb2Ua6R8a-17" value="eg. French" style="editableCssRules=.*;html=1;shape=image;verticalLabelPosition=bottom;labelBackgroundColor=#ffffff;verticalAlign=top;aspect=fixed;imageAspect=0;image=data:image/svg+xml,PHN2ZyB4bWxucz0iaHR0cDovL3d3dy53My5vcmcvMjAwMC9zdmciIHhtbG5zOnY9Imh0dHBzOi8vdmVjdGEuaW8vbmFubyIgd2lkdGg9IjIwLjAwMDQ2MzQ4NTcxNzc3MyIgaGVpZ2h0PSIxNi42MzE1MTU1MDI5Mjk2ODgiIHZpZXdCb3g9IjAgMC4wMDAyNDE0MDk2NTI1MTcxNzcxNiAyMC4wMDA0NjM0ODU3MTc3NzMgMTYuNjMxNTE1NTAyOTI5Njg4Ij4mI3hhOwk8c3R5bGUgdHlwZT0idGV4dC9jc3MiPiYjeGE7CS5zdDB7ZmlsbDojNjY5ZGY2O30mI3hhOwkuc3Qxe2ZpbGw6IzQyODVmNDt9JiN4YTsJPC9zdHlsZT4mI3hhOwk8cGF0aCBjbGFzcz0ic3QwIiBkPSJNLjAxIDMuMzA2aDYuNjR2MS42N0guMDF6bS0uMDEgMTBoMCA5LjE3di0xLjY3SDB6bTAtNC4xN2g0LjE4SDEwbC0xLjY3LTEuNjZIMi41MSAweiIvPiYjeGE7CTxwYXRoIGNsYXNzPSJzdDEiIGQ9Ik0xMCA1LjM4NmEuNDIuNDIgMCAwIDEgLjQyLS4zNi40MS40MSAwIDAgMSAuNDEuMzZ2OS4xOGEyLjA5IDIuMDkgMCAwIDAgMi42MSAyIDIuMTYgMi4xNiAwIDAgMCAxLjU2LTIuMTFWMi4wNjZhLjQuNCAwIDAgMSAuMTktLjQuNDEuNDEgMCAwIDEgLjQ1IDAgLjQuNCAwIDAgMSAuMTkuNHY5LjE2YTIuMDcgMi4wNyAwIDAgMCAuODEgMS42NCAyIDIgMCAwIDAgMS44LjM3IDIuMTYgMi4xNiAwIDAgMCAxLjU2LTIuMTJ2LTIuOGgtMS42N3YyLjkyYS40LjQgMCAwIDEtLjE5LjQuNDEuNDEgMCAwIDEtLjQ1IDAgLjQuNCAwIDAgMS0uMTktLjR2LTkuMTdhMi4wOSAyLjA5IDAgMCAwLTIuNjEtMiAyLjE2IDIuMTYgMCAwIDAtMS41NiAyLjEzdjEyLjM3YS40LjQgMCAwIDEtLjE5LjQuNDEuNDEgMCAwIDEtLjQ1IDAgLjQuNCAwIDAgMS0uMTktLjR2LTkuMTdhMi4wNyAyLjA3IDAgMCAwLTQuMTEtLjM2IDIuNCAyLjQgMCAwIDAtLjA1LjQ2djJMMTAgOS4xMzZ6Ii8+JiN4YTs8L3N2Zz4=;" vertex="1" parent="1">
          <mxGeometry x="-590" y="-572" width="40" height="34" as="geometry" />
        </mxCell>
        <mxCell id="yXYll9jXDUxNb2Ua6R8a-57" value="" style="group;fontSize=14;" vertex="1" connectable="0" parent="1">
          <mxGeometry x="505" y="-585" width="90" height="90" as="geometry" />
        </mxCell>
        <mxCell id="yXYll9jXDUxNb2Ua6R8a-58" value="" style="group" vertex="1" connectable="0" parent="yXYll9jXDUxNb2Ua6R8a-57">
          <mxGeometry x="-15" width="90" height="90" as="geometry" />
        </mxCell>
        <mxCell id="yXYll9jXDUxNb2Ua6R8a-59" value="" style="shape=image;verticalLabelPosition=bottom;labelBackgroundColor=default;verticalAlign=top;aspect=fixed;imageAspect=0;image=data:image/png,iVBORw0KGgoAAAANSUhEUgAAAVwAAAFhCAMAAAALLOJtAAAAAXNSR0IArs4c6QAAAARnQU1BAACxjwv8YQUAAAMAUExURf///wAAAPf39zo6OggAABkZGe/v797e5ikpKaWcnAgIEMXFxcXOzr29vXNzayEhGWNra97e1lJKUlpjY9bW1qWlrTExMXuEhBlCWhDmWmPmWrXOWrVa5rVaWrVaELXOELUQ5rWUWrVarbWUELUQra21tUJCSnt7e4yMlEJCQoyEhBAQSlJaWnsQITprWubWrXtCY0oQUhBrWubOWuZa5uZaWuZaEObOEOYQ5uaUWuZareaUEOYQrRBKjJycnITmWrXOe7V75rVae7VaMbXOMbUx5rWUe7V7rbWUMbUxrYTm3uYZe+YZMXNjjHsQUhB7jK3W5kJKjDq1jBC1jGO1jObOe+Z75uZae+ZaMebOMeYx5uaUe+Z7reaUMeYxrea95hBKrYRKvRBK7+ac5mNKvRBKzqWl5jpzGTq1GRBzGRC1GWO1GTpSGTqUGRBSGRCUGWOUGToQpRAQpToQexAQezoQzkJ7jDrmjGMQpWNCOhAQzhDmjGMQe2NCEGMQzmPmjBB7rYR7vRB772N7vRB7zualnDoQIaXWrTq1WkJKrTrmKTq1rYRK70JK7zq17xC1rRC1WhDmKRC172O1rWO1WmPmKWO177UpWrUpEIS1jDqUWjrmCGNK70JKzjq1zhCUWhDmCBC1zmOUWmPmCGO1zrUIWrUIEDrWWtb31q331oS1GYSUGcWl5hk6ELX3a7X3EGNzOmNzEIR770J77zrm7zoQ70J7rTrmrYQQpYRCOhAQ7xDmrYQQe4RCEBDm72MQ72PmrWPm7+YpWuYpEIRCjIQQzoTmjGN770J7zjrmzhDmzmPmzuYIWuYIEGNCjIS1WoTmKYS1rYS177Upe7UpMYSUWoTmCIS1zrUIe7UIMealvVoQIeb3a+b3EDr3WrX3nLX3QoRzOoRzEIQQ74TmrWOEjDoQAOb3nOb3QsXWpcWlpXsQAEJCY0I6Gff3zsXW5hAQKVpzWvfe78X3/xA6MaW1nMWlvQghGSEIGRAZAMXWxQAZACkQKf/v/wAACAAAAGFRjjIAAAEAdFJOU////////////////////////////////////////////////////////////////////////////////////////////////////////////////////////////////////////////////////////////////////////////////////////////////////////////////////////////////////////////////////////////////////////////////////////////////////////////////////////////////////////////////////wBT9wclAAAACXBIWXMAABcRAAAXEQHKJvM/AAAoJElEQVR4Xu2dfXLiOhLAE0MpRNjIItg5AWPk8hl8lb3enI1/MklVEsjH1ErgJNiopZYsQ+bN/Lb21e4LGJDbrf5S98W3gvBpVhezqhI5o5eXl9tfTIgqLessiUnzmn84w+OsLos0les6ynPGftGtXFy6pYzluVzg+5tZUZZZzKPmDf9AEXEe12UqlKhayKUQJ5z/E2IkJKkrJauIpZVQNhmJdJX8W14rEZca9iZvFg5PXhWr9T8lbILEWZGPm/VyhY7S7J96gLi6Tucj1iyVDzQXac2bq/3jCym05ahZpD6Ioo7/rW8bXs+RG5iN1zdRx81V/yGJy8p9D4PJqzL5Z/zuiOJsFkZov6BV/c90kJDrUArhkDGb13/96pLrVDTrEZpcWmbNp/yVkJdVSF3bZfQ364You+lj1lp53eTl37q6SSF8vTE0eflXCi9J0mYBBoVW2d+3urzGBBQDQEfF37avxcWQO1kbmv5V8UiSzE8jtnu2879odUktVMbmhIi/xqPg9elUwgf5XxLMIasexi31Nd5Y8TesLi/c1pYKkaZFUZarclWXda3+h0oKz4XbddjsP7+60V2JXhOqkuiiqNfxoqsxCV8kWZHmOds0L7ZD0+l78/b/KIsZejXovKyTeMGJPjQbEbKQK3yLN5c3adK8979JjNQJ47yalUuE5xrxZVlUyPzQVru65AK4fX8YcfHW/E4jm8lNHeN/MOFZxTavzZtN0HR3WUIIl9xNkyRbL7NM/iNJ1EPCufzT/qJ/HLi97FWskoWbxxrFSX2DUQ+bdHpBFtNsdVuJ0WiU75mof4xyMRJVUf6hNWi8nDS/0QCrZl7uVJSUFaLkgVVlmVYihzQ/lQs8K8o6i/kftftFtV1uaV76/yh+Xdk/Yfx7e2m8B2P5H3o5ScvsRSqJ5tLfntout1UZXzWv9kEVmTVX6g1VhZTFH5IoIonV583TrPe2naBKI7FQaWVnf4AKTmx5SDp/DCAm72SN2tmQbKUjU337CrS4sPzkvAgVFozrsPlkmn9z9UAsRhgVjw/NS/sTXTuGHayMRfl9tQOxKYVqGvKrRzE+gIGD0kn1XesnE/Muw4pp88JQ8LoKqHl3bEX6LWPCxKxwhyguiGeBZVfBZsm329uI8SH9PUTuezpDBTFc+SW33eYTvguxybKn8+Brqzzh5+byoaHSz/lOwrsoDCFceh+6kpbwbN5cfBDo/VMfLzIwGYOjgbRah17bLM1D72VtaP5tEkbRwqAUaBVYbnkS5GCFBTrLvkd83bibBZbb6GQ1Unn5LQ7FmtwHsQy6N/B6frKCiPw75ONMgpsHLYNZLMtT1prQ6vzxhgz+wTTk2kbxbHMajfDBlq3ObJOZfLOQlZ1xiUhChGZy3iIesgQ1Lq0WzYt6Q/hTiq8NOYBSyij7Jf8r/7Pr5uAGLYL9Bg84fMBsvgy23cZ+li0T83R2W+4pZukP96s0qfrz8ASmzVgd6FuRpKg2l5iihU9YXlVFUdRZMo1V/cLVz6tdDcN1WRQqM+ywxmcs4iEryMWngdSVqgdpLolClZ+JIgODW+98sazTnKGPHW6rM9VVR8kcSmLn0yCCS+r5xOVZpvflcrrgxJS9Vy1gkhp99DC4k4kFtHFZEeILOfq6E5GWCdJCIYusqFDe3vhMssvBJzaEFUb4ysHXpawq48ih3iSKeDZDqd/xOfQuSSC5Ylnzkh7w2qWLQF5cu7e4UBVoKWJ5N9Xp7d0Y+mK0v+DKpxa/tDT3bs4SJSUik0xnJ7d3E+hbib6PEVkUDvsYq/pkvggm0jY++TnCuvnkLrTouQEkLr4uTV1KfXXIfdP6lLDbh1PaDIRDYQXRK2lG+NLB190EySiS2qob6AmjOETdbr2RS3sl0qPExdd9LpMgKQNyV9uMPvHYvHZYSFJLTx30ItmyeZ0PUiPgxdZ/Hzvm55OtD8986KwwITzOytT0DNF7752VxJlDHQ2dh60/4safpRyjgTe1+FodDTMuQH7te4PJ49xBI4hV0PIzCc/MLjEb8HwxiesiHVl/feV5f3lWYN19SV6EKPbt8G55cEQA30gL55nlsWlIvY48yDuHb9mypaIOV5B6yNRcCVsNkhImUqxwj+zI6+5KXxd15/YM17AtMvfgYKvwjwvP0Fa9l6Mor+/g64r0aUB7npvKMH7nT83LAkFIUuD3GXelHxGnji0sWPU/wJWpExq9fWleFoakcKmRf3YusUmKOf769D4bPKl1ZXqMWBnu4+U+41bBLe6ad+KQlq1Dfyw6P0mu+6dJM4yCfQOSVAy9hys2qZPGJ8nMock2LabG/E0wrgyry8owexrJEGZtG6cCJqnMHVINeXG6AyF3cOjodx4kLeFTYyzwyTyycPF1mQgkMTiSFM7lpwFCRV5d11K0ISZvHcOXwIj6blgboUO0hoNk/SKqiivMAfFjUuTnuvq6Jy84NJzAp277yhGEIE736yiaC5h5iF2KQdlZOmFGt6DOypNe2yq2U80RqMXlKydf9/o8p2vuwPgu7XNkgiSYfLMOVjeXMCA1Al5sqZgtT2J9HROBJfPj3D86RrK5ZyPGsTUmF0V3DhrhN/Pr2BIGAn/Tme+34g6xvw40tT4vjw6+Ljtzw3e4oMi3fIz36OBuVUYkwZvOVJy9OWMGCYJnxse1EWML62cmFfqhYIV/hCaKyAW56G/qw+HH3OO+R3e3iOZVIDa/m9TYzC4rMv8CIqLGLwZpXXMHuRIbD+uQm07x2mHm5AtaKTDhH0YgPCtTkU9yMUPXk4KAdS/P7noBrxP0n8lq44lkUuKOmoseWZwoThnbHS3ZUpr31toxEBAdO2ez7pBrm6e1/pUT88PCUR6vKPwdMrIs5ofPnqrZbf7kSQmILi2bFyAx2HUH/GJVvbiItetkyfFgFlde3X9pNecnNj0nK4KazC3AgGs0nktFJr/sQvtai+RO7TX4osdSkCydHHs/NL/vk88kUHvKuUtJCsnsvgP9nAAZaxfXIrm2Dk7y8j38yqQEHEsqyh6RnxdA5Fyy7CSprD4vSz/P7ekL9i2Sa+5HuH1L/U8AqZqS5joaVC8+3+V9ANw0ig9dm45CNoyr68Xnj4+1i2uRXL2ibniTytF7baXLbsz+U3bjK7zRI/CtGTrdw1NbsyPRKjIOLblyW/cvCOBZYXV9pG7wtHr57HdzjTYbbNNPUtvktlq2vpqXzp1Ckvu7h68bkbsyR0XxpGfiJb3A2mBrvImhacKOox8fVHLZ7dqt2uEQh14BeeWV5FzqvzadoZ41Ywsgye/86EuF07m/++R1pWVr1wgHvN166IaFNnXwSgXKxLN4vbRaH61ZOMmVlq33Pkakr2vTZ21oXt65fhwHOlrnqHP5ZqVwYIB9EUrnym3Su0Fa5FRl9kE+d+2G+Q5YOa+IVDcxNgtU6rZ54SFhJJelvgaS+tpuvQK+YEXi9rBwwAWu7F+ez0x77bG63eGlc7uSm/eIfpH1vUOVWYsxZanTBxPgLs6tbkT0ZHq02Er/1AaRXOG/kblM7NHwpk64N9eyEwFRXWFtCvyS/mpeqwF0oL10bld3IR4rLdLXBZtoYFFdw9Afv9TrhZFVqZlqUXMw+B1Ecud+kit93QCz2zejGdZ/jaapVnPmtbkk7920mzHYB/HSud2o2NzHUOC1T4GgDlqVyKoIrg+Z2/Kx3DAF6rmE/SY/ye28af6z+QMadX7CbJOzyqWkGKkbgOiArUmSfpF2bG4MOt9P53YX11ktxKXZshVlMk0ckqw0F+a0X4O+gIFWxh0NkPcdlUklBZFcx7OWUbw2HzrO091plxdM749P8hrhEa+1mdXxyKi1MwEWUOfXJmXtZ+d2JddJ56oTVaYnflNlV/uvHN25jMbdipVVNwA9Ueh183cdBK5mtHQQDaNzHSSXJDOzPFb1QR6DJ0611Te2MglgcbemrBSc1LJVTwfRuXi1YPN1pUbolMaRzKm3kyWSDkQXTJJriIbZEkRhJBerFojl/ASdHa+N6smPtxt+MWO0LJ5rsxHUILmw4E4eTQpX4mfn+kmuOtRtcshYWmp3bZKUDrqB3RvqRxb6DOMWrvUmK+jOvt3aQhKn07kqr2uUWlHCX3Y5d/Dl3tIEmuC40M9TofDiLsCDoSK2lcoH0bkCoRZ4PTee4cwLk7YkPLFmtb9QtWX6JxZQoGNwceFO7ogQexDJtasFm6/L7B2EYpeORLt+kM0bD+G32rWCJReKUqKaBXrp3CPJNXf7IMQy9YzmqKqX+Nahcw6913nEV/qiJrAaL4JysZeYw62nkNzY0otA1Li4S8SX5oBEi01eHRckAAONKdRqDEq7XT5jkrFeOre7uD9MHxRnxoFnqjcmaml3cKde/aLsJvauVtq3b1fN37vE0KnmOSZ/F0ZyQbVApENmTJnLp9fpeHMkZU9fOKODVY/tLBuwoYFORAZswmNUz+YwOheUXFt3kura+Xwad7F65XPRkhNe6CM30IZWNi/oItbNC4wMqXPVWGrTDsRE4XUM7Mqp23FLNwD9FyAPjRfNCzrQW4TG9dS5XcnV6tyILIV5TkzlmBn/gl/jOzxQmn/Vli307wM8tHdoMgmyy+VgOpdkM+2lD+jRl87NI5Z75t75ewcsK0ByofMPY+TpNS+d211ccSSB5hrmD/Jyinq8dETrysHqVfUj6l1QPFdvikFnP7BDZMNIbtf9lb4uZoAOZcK/M13EsxSfl6diF85Z6p28kb6FGwdUu0DWSgwRz5W/eoT92flN88T64DShiqlB1rHeEgN6swM1p+g2KkEk9zAqRrjjhG/W53ykJWPUht0m+q9GZ9pvAFY749qoeOrcIzv3QC3wYuS0tmr+cY/ZGDxx8Ijfcr1Do69RlD9Ff+PQLTDC6NzPV8eoWRhdevXZj536nmqZ6Deo6b32t+CbtwSJLTQemurE6fk7NzdrYvxIA++87FkVBXSoA3xfy+IcEEZy94ubFLn33HQq+uiGpYvVewywnwEJngm6WU8YnSudCOnrGjUCFUVhdKvwFV8a3HLEXYT+OQcCCznavAmkcyP564zWF00TQsy9rrd9ZshKq9chR9wBiI0AgQV8NXIQO3ceL1NjDbPcsXaVHjwzK+WRtaoDRj46+L47bfT1xUSfmnQYBhVEcvPC+LOY+Po+vDRbavnKfWDXB1GW4k4JdhgXWiUK5H0d+rN66dzu4m6Nvu6kpUst813GtIdH/P5z7XN2RejzuIn+WnP8ZPQgkmsiP+opZumkN+4zSyZymmO1h6b6AlLgRpnLTVsE0bkw+lOVxDKpwlbxZcTJI1ZAShSI6zl0FhlWchlwhooszJsPy62lQjBOHrGEAQk0wHbWxyG0BNG5ACKFq73VhOXmZVrebmr849dlUeNmuOyBcjyA8nIYwDec5Nq65ZKkMmaBqKbiEQ0v8boBOoWW6hfXoZtTkNiCBmrvlkt4NjP0JxvTPrP9OLptMniUp9KH0KASBw1+kmv73qqdR/NaI7H5RDWtkLU4OrA5YgF9BPDVXCRXu7g9JfftHr0m5m71Y1otH3yXV7nkCN0AtoXP9YsLV5seMYDOpWn21aDIiqX+i4oejc7JtLR7xPQeCM+O9CG+c+pcJlwbgfPyh3FvF5gzUAARovX3+Eb/hZl+QzijzlUNPFyTCpGlh59Uvd7jMqKf6x/NZUCAFBpgbwyuc6HQ9G4OhPs6RA+WaHdfj7i5DMRGG87I9Wn4wXWuXtBYVYJOgw3lEZt2n+NqUDxRZos35LrWYiO9WjiPzh2t/PuFyBW4Wpv29vEz0OoEQ8T1ZbmfjCuNeQPERs+hc/t0y92j5vybhHeS+vfQ5ZbqKqZxaoHi15PrXMr6DxFSJGbd8CY9Yt+PScw2LztW6oAuObXk0nsXy9ZAtLBZvbfewmtp8HBc6XGj31kG17kdyR2h6qxxGDucSuGtvDW7JdpwNAp41ntxg0iubwMhHUBa8AsGn4+0YB5LclQXCliHBd5qCRJbCLm4kW1xLzejCp/GakGM21q3NARYXGyJoySM5HobSceARxYPmXtGy4yuYLfTTa3/Jim+rC2IzrWcoHQhskuu5FV6xF7Rsivj6rbVKZD9NXa1afPtdC6/aS5qZts5A4XFOOahnXuc6r+JeER/bhA7N6RaQEmuYitWPtEy0wj2ScsJ5Ppvwkr0cxpGcsOpBbApvga/yT+GUcDtGVMP+loxOkd3tw4SW3Bv2gZjNcUOydOVu1MBj56TWvdQTIBCvBx9eu7bSe6RtcCMHrHPiQq4hzMVh6f3gBJSht7RvpvOPbIW8to8Ib85A+VCBA72u3w9DOAA3fm18UktgSQ3SGRhR/ehFbE9WubaX5vo+4UoDuugj+JTe1CtFnYEsXND6txo1ly0YdeRY2qu/3KOlsWAOlVq5mvlYuDACdrS/fbWwm5x1WlJU4MbKoBKRQhQ7dIDgwGw2sYTbKYnSGzBv632MV1r4aOXzIulNtSpfiSCmy5dfv10Aulm7CE/SHKNSnRID61rLXw16okLatINtFo3/TUxvED22OEpM2juG3YDB3SuZXE7OtfY48aRY8n9/Cp8aYzI0pGLR3wNLJzUup8fuNDvaIge53sAtWBuhTyk5HZjC60WU2qiV/PvdbjUlkFNQA5jig+AEbhBFkAv9DdQnWyChbcruSF17pGd2+rUEsnlNemGLX7i1BoaTvBljUGa+XWE2z6hoR+buaFOcUhrwSi5kqukhB7oHXmq751wxB1UIJ1/PfQJJLrmDf8D8ObIZwwcFd3dBec/jSraCbPkKmynJUdLVCImgrJ1m+pTdMEGQrh6uHcgJCzZTqRuaF7W5pySK1EddZu/6njNce19IuiXs69E8Kr5V10YLk0ZGWb/UaDSY0Cd+37soWmeClX/ZVC96QL11D5CD8CXvZBR4NAtMpOW6J28hrmu+v48dm6LKJnB0TKgf0KXBTSi4KuQP4YOFhwoZhPvU9Mzpu3xcyY7tw1PYI/4S2saAXo1HaTJogxolkjvF7j8/voG+JA9edk9A3msc8NtaAid+0G8mgNyNYHuSJsYMOsOJH8BSN6Yosb/SSzGI83LmBzep2NroflDAOzWwhcRB4agHMa2DDwAueDxl39L7gGlO05xT8fOeATskj35vPVtjyQ3oFpwkFxJrG98yXC9FiNouv3XDh2B8TOkYleQR+BMW8Mkffy6U0fxXO+65GNcJFey1urEN6RYQQm7gzu6AN1koL+IjohnRuGl8gt/eMRDSq42ngsCZGzQDZSgHOSBLXANaUx8lyaJ6sjavE/LRsySveY9snNDJiidJLfv4gICdZjJScAGGW/YPW1HtE6N6ZQPj/hIckOm1p0kl+h7ijPs4gJ92TYHaoXAtZG6Yn+YiCTG895jdq8emAEl9zj7O6jkQsmG0ZcHHEFRXXUPHfVhXBvHMdB5kUTdIHBQayGE5G4so/k+gUYVtHq+wrPmDPMnAWLLtNh53TUPg1oLmNjCJ5DkovOVUBfXw8BMAnf1Yg6n0nZEfGoc1bJ96/6g81kLoM7FNhqBapsOc5DkEV6OkXuhMC/NVm+Hs8QWdgCSu0FL7gNQH9I6OjWFZ2pTZBijBTdXubQZslbMS3Kf0ZJ79ajPa7TmyBFDyTRFTx0+ANd1fM+wdQtekmsdp/UBqn4cKNXdgYxjdCAZcFjoiPPFFsijfkNDSy6JO5/XULVPfwEW245J+eJxugjZaiOsznWzc4k+3urgmT50rJOGH20zwDT693Li18MP2XzyTPFcCam1IoX20OQV9OGFeecU6qICZ/8q2fXY1STR0719ZzsaZdCDd0c7t6/kAiXO4rb5cwNZmRL6eel37jCSHrHJZVPMnW09GFdrQb+h9V7cfNb8+QNAfTQw777VL7YGcw5dT6104xaDS64+e55XzZ8/gYv9FSz1bjYRF+Y8kKj9u94eQuLr7mMytM69WGmVKTtaXMvqUoGu5u9CzAfqt3J5A6yububy4JKrt7KYaP78BbH03+yxBLFFN+SplzF9gJq53FzsgMF1rr40hP1o/nxADAzl+GBTeKsGdSrZuLy0iL37eKhnQz9zeXjJ1S/useTKD7P4rKy69l6Ah9icI34b9WlCU+kraAbXufrF/ZU3fz4ETgV/0KfTD8lS4/KyFOhGbIFnBWRGDi65XfNkD2XNn1sQi2KQCN24YSTSI94YfBUpM4nrHBjzzOXBdS6gFnSSq9zg5u8gvsfpd5CpJQWfQ4WnEOaZy4NLrn7oGbC4Fy/m0i/FWPRouR5J3WB6OsYup5aiODNPqB9c517rr6CxFnZMra0hL1+VYeovvbaR/diLR8p+No6dGV5y9fXJGidiD1QB1YLmamygL9KTMj4eSMWTFMIWtxhc5wKxBWBxbY0LP5kUTz5h3j22PJBd8ZDpI2Iy3fCS27ynTZ42f+4Qm+c7HUDz4qV5kzvyidb+sA+eze5gRJ4qChXFHzC4zgVCjsARVKheWgerSrcTyYfYZkTlFexUKIsZNaRoaMmNgMUFTpRcQ6fXtKgGc947G781e8Sqj4dubTg++zm0zv2pj9NW+moPYjieo+OXXF7v1X2wrJK0eo97nEUP0tdFia1kYMl9v9Indivt2JMIaMFg4K3PgMIHi0e8kVZv89IGnrlUnAysc6MYSK3rteV6jt3PDujjEdu6Vm/Sw4vbRo90j/0PLLkRcF4QGLNs8NNhpNXbwyOOr4GKqz00n32u0J1l5rIo5+3QxcA6F+qQV+iLiHymGitEM0jfByK9AePHSsWjLh5fz4xLK2/xS9F+8AaWXA4oUb0l9tMoRCZ6esSVcVbiTvEkM/a7+b86qHx6oui0dQv6Zh5QC+L/eS/uJd0N0vckWjymRhswr26Eaebydt+31bWyvKfkAsXPr9rO5NEUa0BqOT4tiec9Lk2xQzPSWXzarWKQihu0zgVujqaDuSJa9lpcuVkX7dOSLhD0ELIurHpqejacVnJ5qQ0cUb0lBhSsOiA9YuwzdYzNI9ZDD3rauVaW99O5ib4EDCgLhdrDMoeRoqxlmDrCV666QVlqzZslrvW5/SRXf2+gEiIgt05Ll5mXvQYUktjUuvoYVraqdU5aKwaUOEIfGuvNXJZFcY0rtt1Bq8LfI9ZXd+jpzotyPofWS3K7u+cHub7/cKIP5D2rW5HMHHTDuMpwzUx0EOkRYz5KUwUVRHKROhdqCQCVygN22/OuCp0nM2wwSv5wJvyLF1VnS7sayuu462WeVHJfAG82/2py0yLT56RYc/9jp1HkozL76Z0Hsmby8vRaIyCuJyj76NwEsKygHq4ZcC8+Xv7OawfdQMXKVzcQqOHZni0F5lC5nqDsIbmkBrKj0JHeR/1zf9B4gScOlv544ucRR+vUaJH9Bmcun87OjQAj9/KyBh5XveSOW+f8iFu0ushQz9gBZGq2TOgINvVOaOeWQKjjoGlbG31fi865LFu7yQ4Tt7pTYjthZcwrnczOjaBjv/Cd0Z8B3rROW0qkbDnEINjcwamQS2uu8U9NT8LprIUr/X2RnwgaSSvt79KchY2yymVnS5FWr9ToxrvGRGHO5QexFjA6N4FEAG4MpFcLG81xzYgsHZIWcNfMFrwcGa/JpONnkkT5tU5kLQC3RQIftq31Dpr2LGwk9x1bqdYXG2HNES9q806Zp/ZocRBrwa5z4RL8CTzBE5DcG93iSqaW3FeLV7ijrsJm4+m6Qh5zImuBgHWahrfqK0K2FdDWUeoGSzXoIZTN4RxxbB6UcSlq1Ai808QWCHi6gV43L9EAeGhz+MPkswxpHw1ipn+y49JSU6qmsGM4jeROIWNxPDLczEd9RYjx/vPSwW5Q0Zau9BL+dGO8AhuhY0AnyaFBcVz5TU2qC5Dcj8CNHm45A9WGtbtmyq+apGYboXI443MKO9fQVuWHaaGAlhbmxVUf5+gRfy0vSSwNYl08kECSa9a5RH86SkEL060E3vds7e//8OiQqFBTOvYnosjV2hjEpK41lCeQ3BjouisRUFhhBxBF3dgb0D9ICWxejUB6Wur7qxiQUWwRlm2b4XUuKYF+0fLrmreGhd7rsrxrT7Q2RwXajO+zJDPfDyac69Zx3fY/8ZBcUsM9P8TU9GEXsb7S7RnVdDC6SlySmLkwWxm0wA93/mRoOxe2cOVnWVaJlNpbOZ4hf+fUyeo1gbZs2wxt55rOf1aWcg3AysCP9rONJETCfnhmN4eN5xoMBblItq6X0LtzfJdiS1cQFN7VqNGwOte4tva+sMA4H7MB1yG+Tk3Fnlb61FEPGs81ngkX9ocbSl64jXjht8xbelnlqREkEc86e3lAyTXqBPke+7cmQLnA3E2WeAy36jbTs1Jn0gmOhNO5lj4fmBbZ70BRjXMXXbcccQOt0rWD/mlztS7mR3tpMMm9ejTJ7Vhf7twBCkp4dCIl2fzZ6djVmPWrjtT9+kA6l/CV9jZ8gOw7BzSEpQh93UX+XkCDa+lX11vqZ3cGklzLKfB2YQcMMPrgkmLkvk0kv/zMHE38gvapSF9kBaCDguhcy8BrlKWwAzr7u/XawyN1Bqq5ghEVJ2ve44w6SwF9SADJfee2zRk9fwuKl1+iZ0y1iZL63poj9vR198TlHLb7+utcuTPDl9/BVmi5gA5L2cISMJY+mb+ZuW+FEdVByPTb+0ouor8yxsL9YAHpF/9RkSSBVKKix8lLqXVmG6Pa6adzCamF+WSnXFvsOBQFAbrzS1MXq1mOgSvFpa/rfdOidWHT6LnRboYkt1GB8lubjNsddO6yLBE0sdOv6f4HvNSdN+/V/w1j6QljrBTSucXi4uLh5cn0vH1QLZ1ErhsS/eC38ySZFkTjEffsXGi0PfeY1QKocxdy3dMczOd8Ia4dH2ew7z5wkAKLfMoONQ6tCre7fghPClQHIfOAD0hyb8oyHaEun1kKA49I5sB1f/irxz27M1Dq1m2pyut6Ly2Jbb1oPzB38ofmREyQAX+PbuuQkyYVfR+tqyCLrEznQlSz2j9mu9PfuF9v6QQOSO4lRmglonaVW+mSLIGd/ZL1MBg+INNllj35+2MXixqz0ez5msytBd39T4ufeQ71v7h8ww3ENRJJmv/pgbRsHbJIzOLz81unJmptPJtgg12EXq1JuKEx+rpdJjaVaCiesTH2bZlEgG5ZEp/haMFQcyDwS0uFNZ7i3kTtg2f/7TgCayQ3yr4+D+9kOkPuYwpMlRloF9mQlrC/boPzRbn3JI6ekGVq7Zb7Bb2/Rjxj1+idsU1fZxUSkS2+PiQkZPpoi04d8JbPUFVmjn0rG6h/gHAP0BtA4hJhCwbP5sYu/W2eiyluxBqo/UzQ+76+1BV8kKTfM+GDS+8QFQy6RvZMhsvvDeRl70eXLOGncOIfyfJBdcvFZ5HpHG/aQxUwBqjhQBIeYpgXUZ1yU+O1eMPv6aNVgh90C2S6DeRlD9fygGUO/iR671E560fseNri0UFlmebxamGddkX+PABBDcVmFuYGWlBzIPD7+ZbmtdN4Zu5WjkmZS0LHTAQUPO7YWCIiYUiKuYN7OnedmgSGULSI0kHh2DGFjPrUGeCIHH3d1Dny7jBXgOapf+2lFjCuq2Dl3ZB6l5AktUyGOcQn8k5qbEhs+yZd6dC/1liQ+oZzgvx4T2ZOvm7mscMax0gfIkrjcXtPwFYjO/rkacw4zIGQUFv3EACU9Uxz0aMdu5Fua4g2m6qvH6iFkEx0m+YboL6WC8Y9Y+rc8VDqz9yrWHpD4VeXZ7P8Eh1HyIvaMwbKrYGgPC2z6TBSu8dcqy49Fv/CAy1uvi4T3nEO8yxTynJpH/SI2aKwGdrMs/gRgK9cNIJY3XnfWpMptBVFnfQZlItlAdTffED7DJ3r4Orr9qg7vUgA756O0ltpHZzCR5J0Dx8dkbd7L/tC+NQlXch+PPZxmIi+g5p8GvwHG3sQQdXQn7Ac0zfJRlyMELVZHwi/CcGfQAGx/nUvbiDG9cgntJ/qJYlLjzJp2SbejXl3gFPlt6euHSAIV2bSZ1I6uVq7HHZ37R6iAQxKvbmfq+nJCyLwx/znhKt9zP4BH9CZj6/bhkPtWU+tFRQc05qNSh/cXaR4UrskyOSHBLD9ljngpQD9pIclThGZlu1vdpNxh1npRM1JdzFsA0U6Oej5+p/76EOCazlK8yqtsZYZT8pUTFyWVmqE5r19IOC5sm1xlsV9T9BlVcolV/6N4XtKiY2TunTplqW0egiLT354DFruwtriayCm6JaY2zeWV8rLIReaBY6iB55khWD7GnM0o56W7SfAKCgJLX82rzk5+NWV0ImoqllR1HWSxPFiwe+4FNZEimuRptXcPElSQ96je0iHGtrNrOW8Q2JM+wCwUZXO5CIrZmn6w3lVd/TpHtIBGiYrodXZKjjVCWNsYuQQSjeUbRh7o4xu/Co2RY/uIV0WcNWo8G+kEQLuO2qvB1T0OAh4hEk+UuPJn+GJXItU+qISrwHlCTq+o0B1UhmUn0iDNxBvaa0dZe8JSQQ43JaepM7FyPuF8QR6WHp1D9Fg7KwBz3c4JcQl790DygpzV09XImBO4Q52fsHdwROXAKEvrFcWR4NcW0PI+JxmWBteOnTK9YKJAOcJW0RA+9o9/U7kh4UMvK+JoPuYgsQmB/PtmyiFhoVLDaIjokiCm5yJsXuVuRXOGYiLfJDlZSGdhgaeGFN0tGcniQF4mN4OYJVtbsJLEXk87vJ4yPdSCg1xNgu+s1HRqyBBR1waay/o9zBxj7lauyQXcYQ6MtNAFoW5yjl/DK6GAhHdLZ0mUmJgIY/AkswyGv/tNvSTEhK+LO8Dr2+QHO8O+2yQ+zOGyDG886eUUVvvOBfUQMR+RTUKQtbmeVUSc3Osb0H0kmSOCUczVNz2/9VxKmz1Z/k5KhU8IOvbap4H29+kvdtrY+OJeTbzDnAC8veDEFVAk28R64t4yevbvX/HPMKzObXWqLOenRNOTMTjdV2XRSVA/42qvmJljTgcuhFp7bWzRUlZIRwcVp45s+NFxFUWPRWSvIX8F1VZZ8lddMHtpamSSXGdOKYnySLJUHElWtw1b/nTIFJHXHF+p6oVkmyZLZNkGi845w8/yb612J2lE/geytxqFghfphNUmvm7xMd7IpdS16ktLnC15FI73F6jKtB4spph+wxtwp6V+XZMZ7h1uLwcS+37ZKhAU89JPM0sE24Pobf/7bWVsjtDn4PYPE9y4AiTWthlPZNbKL7vWOgE3XfEcb4X21eglaXcFLNsvcweV2V5WxSpNLDR66pg/3m5VSz8injkNjfamSIOPfIOOH2HqfPAV36Z+le5wq9eKyt93vpPtG99INguzsHATxf/8yFJhT9L3Z/f52mYeC6i+Nbz+fZABTObz/1L4EFmriKggQ5W/FGQtXefYCeGaW7y3YkSVBynH6LHqMA/G1L7HZhAswl3suLPQw2Na9ZhCCarE/T++MZ4jVzFMUqzsx0y+y7w2lJl4AcbqjnYn4XjyFUUmz6Tmv9bqCRySOnNq9V/P7qIJnp3bBRggKoBl/+WtgWPH4McGsoH6XH5x/POs5no5RPTfB6w59l/DEIW9b1Lr4sWVPV0+ye0Bh4WWV147G6TqqiX/5bWDk9KVb2DTOdQNslFFaZH399ARB646tmCEWDVoWTK/8msA9KUIndJtu8yUgklx78+SmooY6pIqkrToijrXe+Xf3hB+GKZySWWemK/06k+tyrZXmfJ4jtpgouL/wMfkP0Axue4yQAAAABJRU5ErkJggg==;" vertex="1" parent="yXYll9jXDUxNb2Ua6R8a-58">
          <mxGeometry x="25.289999999999964" width="39.43" height="40" as="geometry" />
        </mxCell>
        <mxCell id="yXYll9jXDUxNb2Ua6R8a-60" value="Speech Correction using Azure OpenAI GPT-4o" style="text;html=1;strokeColor=none;fillColor=none;align=center;verticalAlign=middle;whiteSpace=wrap;rounded=0;" vertex="1" parent="yXYll9jXDUxNb2Ua6R8a-58">
          <mxGeometry y="60" width="90" height="30" as="geometry" />
        </mxCell>
        <mxCell id="yXYll9jXDUxNb2Ua6R8a-68" style="edgeStyle=orthogonalEdgeStyle;rounded=0;orthogonalLoop=1;jettySize=auto;html=1;" edge="1" parent="1" source="yXYll9jXDUxNb2Ua6R8a-65" target="yXYll9jXDUxNb2Ua6R8a-67">
          <mxGeometry relative="1" as="geometry" />
        </mxCell>
        <mxCell id="yXYll9jXDUxNb2Ua6R8a-65" value="&lt;br style=&quot;font-size: 14px;&quot;&gt;Azure Translation Service&lt;div style=&quot;font-size: 14px;&quot;&gt;e.g French to English&lt;/div&gt;" style="sketch=0;points=[[0,0,0],[0.25,0,0],[0.5,0,0],[0.75,0,0],[1,0,0],[0,1,0],[0.25,1,0],[0.5,1,0],[0.75,1,0],[1,1,0],[0,0.25,0],[0,0.5,0],[0,0.75,0],[1,0.25,0],[1,0.5,0],[1,0.75,0]];outlineConnect=0;fontColor=#232F3E;fillColor=#01A88D;strokeColor=#ffffff;dashed=0;verticalLabelPosition=bottom;verticalAlign=top;align=center;html=1;fontSize=14;fontStyle=0;aspect=fixed;shape=mxgraph.aws4.resourceIcon;resIcon=mxgraph.aws4.translate;" vertex="1" parent="1">
          <mxGeometry x="675" y="-603" width="78" height="78" as="geometry" />
        </mxCell>
        <mxCell id="yXYll9jXDUxNb2Ua6R8a-66" style="edgeStyle=orthogonalEdgeStyle;rounded=0;orthogonalLoop=1;jettySize=auto;html=1;" edge="1" parent="1" source="yXYll9jXDUxNb2Ua6R8a-59" target="yXYll9jXDUxNb2Ua6R8a-65">
          <mxGeometry relative="1" as="geometry" />
        </mxCell>
        <mxCell id="yXYll9jXDUxNb2Ua6R8a-67" value="Improve Fluency &#xa;using GPT-4o" style="shape=image;verticalLabelPosition=bottom;labelBackgroundColor=default;verticalAlign=top;aspect=fixed;imageAspect=0;image=data:image/png,iVBORw0KGgoAAAANSUhEUgAAAVwAAAFhCAMAAAALLOJtAAAAAXNSR0IArs4c6QAAAARnQU1BAACxjwv8YQUAAAMAUExURf///wAAAPf39zo6OggAABkZGe/v797e5ikpKaWcnAgIEMXFxcXOzr29vXNzayEhGWNra97e1lJKUlpjY9bW1qWlrTExMXuEhBlCWhDmWmPmWrXOWrVa5rVaWrVaELXOELUQ5rWUWrVarbWUELUQra21tUJCSnt7e4yMlEJCQoyEhBAQSlJaWnsQITprWubWrXtCY0oQUhBrWubOWuZa5uZaWuZaEObOEOYQ5uaUWuZareaUEOYQrRBKjJycnITmWrXOe7V75rVae7VaMbXOMbUx5rWUe7V7rbWUMbUxrYTm3uYZe+YZMXNjjHsQUhB7jK3W5kJKjDq1jBC1jGO1jObOe+Z75uZae+ZaMebOMeYx5uaUe+Z7reaUMeYxrea95hBKrYRKvRBK7+ac5mNKvRBKzqWl5jpzGTq1GRBzGRC1GWO1GTpSGTqUGRBSGRCUGWOUGToQpRAQpToQexAQezoQzkJ7jDrmjGMQpWNCOhAQzhDmjGMQe2NCEGMQzmPmjBB7rYR7vRB772N7vRB7zualnDoQIaXWrTq1WkJKrTrmKTq1rYRK70JK7zq17xC1rRC1WhDmKRC172O1rWO1WmPmKWO177UpWrUpEIS1jDqUWjrmCGNK70JKzjq1zhCUWhDmCBC1zmOUWmPmCGO1zrUIWrUIEDrWWtb31q331oS1GYSUGcWl5hk6ELX3a7X3EGNzOmNzEIR770J77zrm7zoQ70J7rTrmrYQQpYRCOhAQ7xDmrYQQe4RCEBDm72MQ72PmrWPm7+YpWuYpEIRCjIQQzoTmjGN770J7zjrmzhDmzmPmzuYIWuYIEGNCjIS1WoTmKYS1rYS177Upe7UpMYSUWoTmCIS1zrUIe7UIMealvVoQIeb3a+b3EDr3WrX3nLX3QoRzOoRzEIQQ74TmrWOEjDoQAOb3nOb3QsXWpcWlpXsQAEJCY0I6Gff3zsXW5hAQKVpzWvfe78X3/xA6MaW1nMWlvQghGSEIGRAZAMXWxQAZACkQKf/v/wAACAAAAGFRjjIAAAEAdFJOU////////////////////////////////////////////////////////////////////////////////////////////////////////////////////////////////////////////////////////////////////////////////////////////////////////////////////////////////////////////////////////////////////////////////////////////////////////////////////////////////////////////////////wBT9wclAAAACXBIWXMAABcRAAAXEQHKJvM/AAAoJElEQVR4Xu2dfXLiOhLAE0MpRNjIItg5AWPk8hl8lb3enI1/MklVEsjH1ErgJNiopZYsQ+bN/Lb21e4LGJDbrf5S98W3gvBpVhezqhI5o5eXl9tfTIgqLessiUnzmn84w+OsLos0les6ynPGftGtXFy6pYzluVzg+5tZUZZZzKPmDf9AEXEe12UqlKhayKUQJ5z/E2IkJKkrJauIpZVQNhmJdJX8W14rEZca9iZvFg5PXhWr9T8lbILEWZGPm/VyhY7S7J96gLi6Tucj1iyVDzQXac2bq/3jCym05ahZpD6Ioo7/rW8bXs+RG5iN1zdRx81V/yGJy8p9D4PJqzL5Z/zuiOJsFkZov6BV/c90kJDrUArhkDGb13/96pLrVDTrEZpcWmbNp/yVkJdVSF3bZfQ364You+lj1lp53eTl37q6SSF8vTE0eflXCi9J0mYBBoVW2d+3urzGBBQDQEfF37avxcWQO1kbmv5V8UiSzE8jtnu2879odUktVMbmhIi/xqPg9elUwgf5XxLMIasexi31Nd5Y8TesLi/c1pYKkaZFUZarclWXda3+h0oKz4XbddjsP7+60V2JXhOqkuiiqNfxoqsxCV8kWZHmOds0L7ZD0+l78/b/KIsZejXovKyTeMGJPjQbEbKQK3yLN5c3adK8979JjNQJ47yalUuE5xrxZVlUyPzQVru65AK4fX8YcfHW/E4jm8lNHeN/MOFZxTavzZtN0HR3WUIIl9xNkyRbL7NM/iNJ1EPCufzT/qJ/HLi97FWskoWbxxrFSX2DUQ+bdHpBFtNsdVuJ0WiU75mof4xyMRJVUf6hNWi8nDS/0QCrZl7uVJSUFaLkgVVlmVYihzQ/lQs8K8o6i/kftftFtV1uaV76/yh+Xdk/Yfx7e2m8B2P5H3o5ScvsRSqJ5tLfntout1UZXzWv9kEVmTVX6g1VhZTFH5IoIonV583TrPe2naBKI7FQaWVnf4AKTmx5SDp/DCAm72SN2tmQbKUjU337CrS4sPzkvAgVFozrsPlkmn9z9UAsRhgVjw/NS/sTXTuGHayMRfl9tQOxKYVqGvKrRzE+gIGD0kn1XesnE/Muw4pp88JQ8LoKqHl3bEX6LWPCxKxwhyguiGeBZVfBZsm329uI8SH9PUTuezpDBTFc+SW33eYTvguxybKn8+Brqzzh5+byoaHSz/lOwrsoDCFceh+6kpbwbN5cfBDo/VMfLzIwGYOjgbRah17bLM1D72VtaP5tEkbRwqAUaBVYbnkS5GCFBTrLvkd83bibBZbb6GQ1Unn5LQ7FmtwHsQy6N/B6frKCiPw75ONMgpsHLYNZLMtT1prQ6vzxhgz+wTTk2kbxbHMajfDBlq3ObJOZfLOQlZ1xiUhChGZy3iIesgQ1Lq0WzYt6Q/hTiq8NOYBSyij7Jf8r/7Pr5uAGLYL9Bg84fMBsvgy23cZ+li0T83R2W+4pZukP96s0qfrz8ASmzVgd6FuRpKg2l5iihU9YXlVFUdRZMo1V/cLVz6tdDcN1WRQqM+ywxmcs4iEryMWngdSVqgdpLolClZ+JIgODW+98sazTnKGPHW6rM9VVR8kcSmLn0yCCS+r5xOVZpvflcrrgxJS9Vy1gkhp99DC4k4kFtHFZEeILOfq6E5GWCdJCIYusqFDe3vhMssvBJzaEFUb4ysHXpawq48ih3iSKeDZDqd/xOfQuSSC5Ylnzkh7w2qWLQF5cu7e4UBVoKWJ5N9Xp7d0Y+mK0v+DKpxa/tDT3bs4SJSUik0xnJ7d3E+hbib6PEVkUDvsYq/pkvggm0jY++TnCuvnkLrTouQEkLr4uTV1KfXXIfdP6lLDbh1PaDIRDYQXRK2lG+NLB190EySiS2qob6AmjOETdbr2RS3sl0qPExdd9LpMgKQNyV9uMPvHYvHZYSFJLTx30ItmyeZ0PUiPgxdZ/Hzvm55OtD8986KwwITzOytT0DNF7752VxJlDHQ2dh60/4safpRyjgTe1+FodDTMuQH7te4PJ49xBI4hV0PIzCc/MLjEb8HwxiesiHVl/feV5f3lWYN19SV6EKPbt8G55cEQA30gL55nlsWlIvY48yDuHb9mypaIOV5B6yNRcCVsNkhImUqxwj+zI6+5KXxd15/YM17AtMvfgYKvwjwvP0Fa9l6Mor+/g64r0aUB7npvKMH7nT83LAkFIUuD3GXelHxGnji0sWPU/wJWpExq9fWleFoakcKmRf3YusUmKOf769D4bPKl1ZXqMWBnu4+U+41bBLe6ad+KQlq1Dfyw6P0mu+6dJM4yCfQOSVAy9hys2qZPGJ8nMock2LabG/E0wrgyry8owexrJEGZtG6cCJqnMHVINeXG6AyF3cOjodx4kLeFTYyzwyTyycPF1mQgkMTiSFM7lpwFCRV5d11K0ISZvHcOXwIj6blgboUO0hoNk/SKqiivMAfFjUuTnuvq6Jy84NJzAp277yhGEIE736yiaC5h5iF2KQdlZOmFGt6DOypNe2yq2U80RqMXlKydf9/o8p2vuwPgu7XNkgiSYfLMOVjeXMCA1Al5sqZgtT2J9HROBJfPj3D86RrK5ZyPGsTUmF0V3DhrhN/Pr2BIGAn/Tme+34g6xvw40tT4vjw6+Ljtzw3e4oMi3fIz36OBuVUYkwZvOVJy9OWMGCYJnxse1EWML62cmFfqhYIV/hCaKyAW56G/qw+HH3OO+R3e3iOZVIDa/m9TYzC4rMv8CIqLGLwZpXXMHuRIbD+uQm07x2mHm5AtaKTDhH0YgPCtTkU9yMUPXk4KAdS/P7noBrxP0n8lq44lkUuKOmoseWZwoThnbHS3ZUpr31toxEBAdO2ez7pBrm6e1/pUT88PCUR6vKPwdMrIs5ofPnqrZbf7kSQmILi2bFyAx2HUH/GJVvbiItetkyfFgFlde3X9pNecnNj0nK4KazC3AgGs0nktFJr/sQvtai+RO7TX4osdSkCydHHs/NL/vk88kUHvKuUtJCsnsvgP9nAAZaxfXIrm2Dk7y8j38yqQEHEsqyh6RnxdA5Fyy7CSprD4vSz/P7ekL9i2Sa+5HuH1L/U8AqZqS5joaVC8+3+V9ANw0ig9dm45CNoyr68Xnj4+1i2uRXL2ibniTytF7baXLbsz+U3bjK7zRI/CtGTrdw1NbsyPRKjIOLblyW/cvCOBZYXV9pG7wtHr57HdzjTYbbNNPUtvktlq2vpqXzp1Ckvu7h68bkbsyR0XxpGfiJb3A2mBrvImhacKOox8fVHLZ7dqt2uEQh14BeeWV5FzqvzadoZ41Ywsgye/86EuF07m/++R1pWVr1wgHvN166IaFNnXwSgXKxLN4vbRaH61ZOMmVlq33Pkakr2vTZ21oXt65fhwHOlrnqHP5ZqVwYIB9EUrnym3Su0Fa5FRl9kE+d+2G+Q5YOa+IVDcxNgtU6rZ54SFhJJelvgaS+tpuvQK+YEXi9rBwwAWu7F+ez0x77bG63eGlc7uSm/eIfpH1vUOVWYsxZanTBxPgLs6tbkT0ZHq02Er/1AaRXOG/kblM7NHwpk64N9eyEwFRXWFtCvyS/mpeqwF0oL10bld3IR4rLdLXBZtoYFFdw9Afv9TrhZFVqZlqUXMw+B1Ecud+kit93QCz2zejGdZ/jaapVnPmtbkk7920mzHYB/HSud2o2NzHUOC1T4GgDlqVyKoIrg+Z2/Kx3DAF6rmE/SY/ye28af6z+QMadX7CbJOzyqWkGKkbgOiArUmSfpF2bG4MOt9P53YX11ktxKXZshVlMk0ckqw0F+a0X4O+gIFWxh0NkPcdlUklBZFcx7OWUbw2HzrO091plxdM749P8hrhEa+1mdXxyKi1MwEWUOfXJmXtZ+d2JddJ56oTVaYnflNlV/uvHN25jMbdipVVNwA9Ueh183cdBK5mtHQQDaNzHSSXJDOzPFb1QR6DJ0611Te2MglgcbemrBSc1LJVTwfRuXi1YPN1pUbolMaRzKm3kyWSDkQXTJJriIbZEkRhJBerFojl/ASdHa+N6smPtxt+MWO0LJ5rsxHUILmw4E4eTQpX4mfn+kmuOtRtcshYWmp3bZKUDrqB3RvqRxb6DOMWrvUmK+jOvt3aQhKn07kqr2uUWlHCX3Y5d/Dl3tIEmuC40M9TofDiLsCDoSK2lcoH0bkCoRZ4PTee4cwLk7YkPLFmtb9QtWX6JxZQoGNwceFO7ogQexDJtasFm6/L7B2EYpeORLt+kM0bD+G32rWCJReKUqKaBXrp3CPJNXf7IMQy9YzmqKqX+Nahcw6913nEV/qiJrAaL4JysZeYw62nkNzY0otA1Li4S8SX5oBEi01eHRckAAONKdRqDEq7XT5jkrFeOre7uD9MHxRnxoFnqjcmaml3cKde/aLsJvauVtq3b1fN37vE0KnmOSZ/F0ZyQbVApENmTJnLp9fpeHMkZU9fOKODVY/tLBuwoYFORAZswmNUz+YwOheUXFt3kura+Xwad7F65XPRkhNe6CM30IZWNi/oItbNC4wMqXPVWGrTDsRE4XUM7Mqp23FLNwD9FyAPjRfNCzrQW4TG9dS5XcnV6tyILIV5TkzlmBn/gl/jOzxQmn/Vli307wM8tHdoMgmyy+VgOpdkM+2lD+jRl87NI5Z75t75ewcsK0ByofMPY+TpNS+d211ccSSB5hrmD/Jyinq8dETrysHqVfUj6l1QPFdvikFnP7BDZMNIbtf9lb4uZoAOZcK/M13EsxSfl6diF85Z6p28kb6FGwdUu0DWSgwRz5W/eoT92flN88T64DShiqlB1rHeEgN6swM1p+g2KkEk9zAqRrjjhG/W53ykJWPUht0m+q9GZ9pvAFY749qoeOrcIzv3QC3wYuS0tmr+cY/ZGDxx8Ijfcr1Do69RlD9Ff+PQLTDC6NzPV8eoWRhdevXZj536nmqZ6Deo6b32t+CbtwSJLTQemurE6fk7NzdrYvxIA++87FkVBXSoA3xfy+IcEEZy94ubFLn33HQq+uiGpYvVewywnwEJngm6WU8YnSudCOnrGjUCFUVhdKvwFV8a3HLEXYT+OQcCCznavAmkcyP564zWF00TQsy9rrd9ZshKq9chR9wBiI0AgQV8NXIQO3ceL1NjDbPcsXaVHjwzK+WRtaoDRj46+L47bfT1xUSfmnQYBhVEcvPC+LOY+Po+vDRbavnKfWDXB1GW4k4JdhgXWiUK5H0d+rN66dzu4m6Nvu6kpUst813GtIdH/P5z7XN2RejzuIn+WnP8ZPQgkmsiP+opZumkN+4zSyZymmO1h6b6AlLgRpnLTVsE0bkw+lOVxDKpwlbxZcTJI1ZAShSI6zl0FhlWchlwhooszJsPy62lQjBOHrGEAQk0wHbWxyG0BNG5ACKFq73VhOXmZVrebmr849dlUeNmuOyBcjyA8nIYwDec5Nq65ZKkMmaBqKbiEQ0v8boBOoWW6hfXoZtTkNiCBmrvlkt4NjP0JxvTPrP9OLptMniUp9KH0KASBw1+kmv73qqdR/NaI7H5RDWtkLU4OrA5YgF9BPDVXCRXu7g9JfftHr0m5m71Y1otH3yXV7nkCN0AtoXP9YsLV5seMYDOpWn21aDIiqX+i4oejc7JtLR7xPQeCM+O9CG+c+pcJlwbgfPyh3FvF5gzUAARovX3+Eb/hZl+QzijzlUNPFyTCpGlh59Uvd7jMqKf6x/NZUCAFBpgbwyuc6HQ9G4OhPs6RA+WaHdfj7i5DMRGG87I9Wn4wXWuXtBYVYJOgw3lEZt2n+NqUDxRZos35LrWYiO9WjiPzh2t/PuFyBW4Wpv29vEz0OoEQ8T1ZbmfjCuNeQPERs+hc/t0y92j5vybhHeS+vfQ5ZbqKqZxaoHi15PrXMr6DxFSJGbd8CY9Yt+PScw2LztW6oAuObXk0nsXy9ZAtLBZvbfewmtp8HBc6XGj31kG17kdyR2h6qxxGDucSuGtvDW7JdpwNAp41ntxg0iubwMhHUBa8AsGn4+0YB5LclQXCliHBd5qCRJbCLm4kW1xLzejCp/GakGM21q3NARYXGyJoySM5HobSceARxYPmXtGy4yuYLfTTa3/Jim+rC2IzrWcoHQhskuu5FV6xF7Rsivj6rbVKZD9NXa1afPtdC6/aS5qZts5A4XFOOahnXuc6r+JeER/bhA7N6RaQEmuYitWPtEy0wj2ScsJ5Ppvwkr0cxpGcsOpBbApvga/yT+GUcDtGVMP+loxOkd3tw4SW3Bv2gZjNcUOydOVu1MBj56TWvdQTIBCvBx9eu7bSe6RtcCMHrHPiQq4hzMVh6f3gBJSht7RvpvOPbIW8to8Ib85A+VCBA72u3w9DOAA3fm18UktgSQ3SGRhR/ehFbE9WubaX5vo+4UoDuugj+JTe1CtFnYEsXND6txo1ly0YdeRY2qu/3KOlsWAOlVq5mvlYuDACdrS/fbWwm5x1WlJU4MbKoBKRQhQ7dIDgwGw2sYTbKYnSGzBv632MV1r4aOXzIulNtSpfiSCmy5dfv10Aulm7CE/SHKNSnRID61rLXw16okLatINtFo3/TUxvED22OEpM2juG3YDB3SuZXE7OtfY48aRY8n9/Cp8aYzI0pGLR3wNLJzUup8fuNDvaIge53sAtWBuhTyk5HZjC60WU2qiV/PvdbjUlkFNQA5jig+AEbhBFkAv9DdQnWyChbcruSF17pGd2+rUEsnlNemGLX7i1BoaTvBljUGa+XWE2z6hoR+buaFOcUhrwSi5kqukhB7oHXmq751wxB1UIJ1/PfQJJLrmDf8D8ObIZwwcFd3dBec/jSraCbPkKmynJUdLVCImgrJ1m+pTdMEGQrh6uHcgJCzZTqRuaF7W5pySK1EddZu/6njNce19IuiXs69E8Kr5V10YLk0ZGWb/UaDSY0Cd+37soWmeClX/ZVC96QL11D5CD8CXvZBR4NAtMpOW6J28hrmu+v48dm6LKJnB0TKgf0KXBTSi4KuQP4YOFhwoZhPvU9Mzpu3xcyY7tw1PYI/4S2saAXo1HaTJogxolkjvF7j8/voG+JA9edk9A3msc8NtaAid+0G8mgNyNYHuSJsYMOsOJH8BSN6Yosb/SSzGI83LmBzep2NroflDAOzWwhcRB4agHMa2DDwAueDxl39L7gGlO05xT8fOeATskj35vPVtjyQ3oFpwkFxJrG98yXC9FiNouv3XDh2B8TOkYleQR+BMW8Mkffy6U0fxXO+65GNcJFey1urEN6RYQQm7gzu6AN1koL+IjohnRuGl8gt/eMRDSq42ngsCZGzQDZSgHOSBLXANaUx8lyaJ6sjavE/LRsySveY9snNDJiidJLfv4gICdZjJScAGGW/YPW1HtE6N6ZQPj/hIckOm1p0kl+h7ijPs4gJ92TYHaoXAtZG6Yn+YiCTG895jdq8emAEl9zj7O6jkQsmG0ZcHHEFRXXUPHfVhXBvHMdB5kUTdIHBQayGE5G4so/k+gUYVtHq+wrPmDPMnAWLLtNh53TUPg1oLmNjCJ5DkovOVUBfXw8BMAnf1Yg6n0nZEfGoc1bJ96/6g81kLoM7FNhqBapsOc5DkEV6OkXuhMC/NVm+Hs8QWdgCSu0FL7gNQH9I6OjWFZ2pTZBijBTdXubQZslbMS3Kf0ZJ79ajPa7TmyBFDyTRFTx0+ANd1fM+wdQtekmsdp/UBqn4cKNXdgYxjdCAZcFjoiPPFFsijfkNDSy6JO5/XULVPfwEW245J+eJxugjZaiOsznWzc4k+3urgmT50rJOGH20zwDT693Li18MP2XzyTPFcCam1IoX20OQV9OGFeecU6qICZ/8q2fXY1STR0719ZzsaZdCDd0c7t6/kAiXO4rb5cwNZmRL6eel37jCSHrHJZVPMnW09GFdrQb+h9V7cfNb8+QNAfTQw777VL7YGcw5dT6104xaDS64+e55XzZ8/gYv9FSz1bjYRF+Y8kKj9u94eQuLr7mMytM69WGmVKTtaXMvqUoGu5u9CzAfqt3J5A6yububy4JKrt7KYaP78BbH03+yxBLFFN+SplzF9gJq53FzsgMF1rr40hP1o/nxADAzl+GBTeKsGdSrZuLy0iL37eKhnQz9zeXjJ1S/useTKD7P4rKy69l6Ah9icI34b9WlCU+kraAbXufrF/ZU3fz4ETgV/0KfTD8lS4/KyFOhGbIFnBWRGDi65XfNkD2XNn1sQi2KQCN24YSTSI94YfBUpM4nrHBjzzOXBdS6gFnSSq9zg5u8gvsfpd5CpJQWfQ4WnEOaZy4NLrn7oGbC4Fy/m0i/FWPRouR5J3WB6OsYup5aiODNPqB9c517rr6CxFnZMra0hL1+VYeovvbaR/diLR8p+No6dGV5y9fXJGidiD1QB1YLmamygL9KTMj4eSMWTFMIWtxhc5wKxBWBxbY0LP5kUTz5h3j22PJBd8ZDpI2Iy3fCS27ynTZ42f+4Qm+c7HUDz4qV5kzvyidb+sA+eze5gRJ4qChXFHzC4zgVCjsARVKheWgerSrcTyYfYZkTlFexUKIsZNaRoaMmNgMUFTpRcQ6fXtKgGc947G781e8Sqj4dubTg++zm0zv2pj9NW+moPYjieo+OXXF7v1X2wrJK0eo97nEUP0tdFia1kYMl9v9Indivt2JMIaMFg4K3PgMIHi0e8kVZv89IGnrlUnAysc6MYSK3rteV6jt3PDujjEdu6Vm/Sw4vbRo90j/0PLLkRcF4QGLNs8NNhpNXbwyOOr4GKqz00n32u0J1l5rIo5+3QxcA6F+qQV+iLiHymGitEM0jfByK9AePHSsWjLh5fz4xLK2/xS9F+8AaWXA4oUb0l9tMoRCZ6esSVcVbiTvEkM/a7+b86qHx6oui0dQv6Zh5QC+L/eS/uJd0N0vckWjymRhswr26Eaebydt+31bWyvKfkAsXPr9rO5NEUa0BqOT4tiec9Lk2xQzPSWXzarWKQihu0zgVujqaDuSJa9lpcuVkX7dOSLhD0ELIurHpqejacVnJ5qQ0cUb0lBhSsOiA9YuwzdYzNI9ZDD3rauVaW99O5ib4EDCgLhdrDMoeRoqxlmDrCV666QVlqzZslrvW5/SRXf2+gEiIgt05Ll5mXvQYUktjUuvoYVraqdU5aKwaUOEIfGuvNXJZFcY0rtt1Bq8LfI9ZXd+jpzotyPofWS3K7u+cHub7/cKIP5D2rW5HMHHTDuMpwzUx0EOkRYz5KUwUVRHKROhdqCQCVygN22/OuCp0nM2wwSv5wJvyLF1VnS7sayuu462WeVHJfAG82/2py0yLT56RYc/9jp1HkozL76Z0Hsmby8vRaIyCuJyj76NwEsKygHq4ZcC8+Xv7OawfdQMXKVzcQqOHZni0F5lC5nqDsIbmkBrKj0JHeR/1zf9B4gScOlv544ucRR+vUaJH9Bmcun87OjQAj9/KyBh5XveSOW+f8iFu0ushQz9gBZGq2TOgINvVOaOeWQKjjoGlbG31fi865LFu7yQ4Tt7pTYjthZcwrnczOjaBjv/Cd0Z8B3rROW0qkbDnEINjcwamQS2uu8U9NT8LprIUr/X2RnwgaSSvt79KchY2yymVnS5FWr9ToxrvGRGHO5QexFjA6N4FEAG4MpFcLG81xzYgsHZIWcNfMFrwcGa/JpONnkkT5tU5kLQC3RQIftq31Dpr2LGwk9x1bqdYXG2HNES9q806Zp/ZocRBrwa5z4RL8CTzBE5DcG93iSqaW3FeLV7ijrsJm4+m6Qh5zImuBgHWahrfqK0K2FdDWUeoGSzXoIZTN4RxxbB6UcSlq1Ai808QWCHi6gV43L9EAeGhz+MPkswxpHw1ipn+y49JSU6qmsGM4jeROIWNxPDLczEd9RYjx/vPSwW5Q0Zau9BL+dGO8AhuhY0AnyaFBcVz5TU2qC5Dcj8CNHm45A9WGtbtmyq+apGYboXI443MKO9fQVuWHaaGAlhbmxVUf5+gRfy0vSSwNYl08kECSa9a5RH86SkEL060E3vds7e//8OiQqFBTOvYnosjV2hjEpK41lCeQ3BjouisRUFhhBxBF3dgb0D9ICWxejUB6Wur7qxiQUWwRlm2b4XUuKYF+0fLrmreGhd7rsrxrT7Q2RwXajO+zJDPfDyac69Zx3fY/8ZBcUsM9P8TU9GEXsb7S7RnVdDC6SlySmLkwWxm0wA93/mRoOxe2cOVnWVaJlNpbOZ4hf+fUyeo1gbZs2wxt55rOf1aWcg3AysCP9rONJETCfnhmN4eN5xoMBblItq6X0LtzfJdiS1cQFN7VqNGwOte4tva+sMA4H7MB1yG+Tk3Fnlb61FEPGs81ngkX9ocbSl64jXjht8xbelnlqREkEc86e3lAyTXqBPke+7cmQLnA3E2WeAy36jbTs1Jn0gmOhNO5lj4fmBbZ70BRjXMXXbcccQOt0rWD/mlztS7mR3tpMMm9ejTJ7Vhf7twBCkp4dCIl2fzZ6djVmPWrjtT9+kA6l/CV9jZ8gOw7BzSEpQh93UX+XkCDa+lX11vqZ3cGklzLKfB2YQcMMPrgkmLkvk0kv/zMHE38gvapSF9kBaCDguhcy8BrlKWwAzr7u/XawyN1Bqq5ghEVJ2ve44w6SwF9SADJfee2zRk9fwuKl1+iZ0y1iZL63poj9vR198TlHLb7+utcuTPDl9/BVmi5gA5L2cISMJY+mb+ZuW+FEdVByPTb+0ouor8yxsL9YAHpF/9RkSSBVKKix8lLqXVmG6Pa6adzCamF+WSnXFvsOBQFAbrzS1MXq1mOgSvFpa/rfdOidWHT6LnRboYkt1GB8lubjNsddO6yLBE0sdOv6f4HvNSdN+/V/w1j6QljrBTSucXi4uLh5cn0vH1QLZ1ErhsS/eC38ySZFkTjEffsXGi0PfeY1QKocxdy3dMczOd8Ia4dH2ew7z5wkAKLfMoONQ6tCre7fghPClQHIfOAD0hyb8oyHaEun1kKA49I5sB1f/irxz27M1Dq1m2pyut6Ly2Jbb1oPzB38ofmREyQAX+PbuuQkyYVfR+tqyCLrEznQlSz2j9mu9PfuF9v6QQOSO4lRmglonaVW+mSLIGd/ZL1MBg+INNllj35+2MXixqz0ez5msytBd39T4ufeQ71v7h8ww3ENRJJmv/pgbRsHbJIzOLz81unJmptPJtgg12EXq1JuKEx+rpdJjaVaCiesTH2bZlEgG5ZEp/haMFQcyDwS0uFNZ7i3kTtg2f/7TgCayQ3yr4+D+9kOkPuYwpMlRloF9mQlrC/boPzRbn3JI6ekGVq7Zb7Bb2/Rjxj1+idsU1fZxUSkS2+PiQkZPpoi04d8JbPUFVmjn0rG6h/gHAP0BtA4hJhCwbP5sYu/W2eiyluxBqo/UzQ+76+1BV8kKTfM+GDS+8QFQy6RvZMhsvvDeRl70eXLOGncOIfyfJBdcvFZ5HpHG/aQxUwBqjhQBIeYpgXUZ1yU+O1eMPv6aNVgh90C2S6DeRlD9fygGUO/iR671E560fseNri0UFlmebxamGddkX+PABBDcVmFuYGWlBzIPD7+ZbmtdN4Zu5WjkmZS0LHTAQUPO7YWCIiYUiKuYN7OnedmgSGULSI0kHh2DGFjPrUGeCIHH3d1Dny7jBXgOapf+2lFjCuq2Dl3ZB6l5AktUyGOcQn8k5qbEhs+yZd6dC/1liQ+oZzgvx4T2ZOvm7mscMax0gfIkrjcXtPwFYjO/rkacw4zIGQUFv3EACU9Uxz0aMdu5Fua4g2m6qvH6iFkEx0m+YboL6WC8Y9Y+rc8VDqz9yrWHpD4VeXZ7P8Eh1HyIvaMwbKrYGgPC2z6TBSu8dcqy49Fv/CAy1uvi4T3nEO8yxTynJpH/SI2aKwGdrMs/gRgK9cNIJY3XnfWpMptBVFnfQZlItlAdTffED7DJ3r4Orr9qg7vUgA756O0ltpHZzCR5J0Dx8dkbd7L/tC+NQlXch+PPZxmIi+g5p8GvwHG3sQQdXQn7Ac0zfJRlyMELVZHwi/CcGfQAGx/nUvbiDG9cgntJ/qJYlLjzJp2SbejXl3gFPlt6euHSAIV2bSZ1I6uVq7HHZ37R6iAQxKvbmfq+nJCyLwx/znhKt9zP4BH9CZj6/bhkPtWU+tFRQc05qNSh/cXaR4UrskyOSHBLD9ljngpQD9pIclThGZlu1vdpNxh1npRM1JdzFsA0U6Oej5+p/76EOCazlK8yqtsZYZT8pUTFyWVmqE5r19IOC5sm1xlsV9T9BlVcolV/6N4XtKiY2TunTplqW0egiLT354DFruwtriayCm6JaY2zeWV8rLIReaBY6iB55khWD7GnM0o56W7SfAKCgJLX82rzk5+NWV0ImoqllR1HWSxPFiwe+4FNZEimuRptXcPElSQ96je0iHGtrNrOW8Q2JM+wCwUZXO5CIrZmn6w3lVd/TpHtIBGiYrodXZKjjVCWNsYuQQSjeUbRh7o4xu/Co2RY/uIV0WcNWo8G+kEQLuO2qvB1T0OAh4hEk+UuPJn+GJXItU+qISrwHlCTq+o0B1UhmUn0iDNxBvaa0dZe8JSQQ43JaepM7FyPuF8QR6WHp1D9Fg7KwBz3c4JcQl790DygpzV09XImBO4Q52fsHdwROXAKEvrFcWR4NcW0PI+JxmWBteOnTK9YKJAOcJW0RA+9o9/U7kh4UMvK+JoPuYgsQmB/PtmyiFhoVLDaIjokiCm5yJsXuVuRXOGYiLfJDlZSGdhgaeGFN0tGcniQF4mN4OYJVtbsJLEXk87vJ4yPdSCg1xNgu+s1HRqyBBR1waay/o9zBxj7lauyQXcYQ6MtNAFoW5yjl/DK6GAhHdLZ0mUmJgIY/AkswyGv/tNvSTEhK+LO8Dr2+QHO8O+2yQ+zOGyDG886eUUVvvOBfUQMR+RTUKQtbmeVUSc3Osb0H0kmSOCUczVNz2/9VxKmz1Z/k5KhU8IOvbap4H29+kvdtrY+OJeTbzDnAC8veDEFVAk28R64t4yevbvX/HPMKzObXWqLOenRNOTMTjdV2XRSVA/42qvmJljTgcuhFp7bWzRUlZIRwcVp45s+NFxFUWPRWSvIX8F1VZZ8lddMHtpamSSXGdOKYnySLJUHElWtw1b/nTIFJHXHF+p6oVkmyZLZNkGi845w8/yb612J2lE/geytxqFghfphNUmvm7xMd7IpdS16ktLnC15FI73F6jKtB4spph+wxtwp6V+XZMZ7h1uLwcS+37ZKhAU89JPM0sE24Pobf/7bWVsjtDn4PYPE9y4AiTWthlPZNbKL7vWOgE3XfEcb4X21eglaXcFLNsvcweV2V5WxSpNLDR66pg/3m5VSz8injkNjfamSIOPfIOOH2HqfPAV36Z+le5wq9eKyt93vpPtG99INguzsHATxf/8yFJhT9L3Z/f52mYeC6i+Nbz+fZABTObz/1L4EFmriKggQ5W/FGQtXefYCeGaW7y3YkSVBynH6LHqMA/G1L7HZhAswl3suLPQw2Na9ZhCCarE/T++MZ4jVzFMUqzsx0y+y7w2lJl4AcbqjnYn4XjyFUUmz6Tmv9bqCRySOnNq9V/P7qIJnp3bBRggKoBl/+WtgWPH4McGsoH6XH5x/POs5no5RPTfB6w59l/DEIW9b1Lr4sWVPV0+ye0Bh4WWV147G6TqqiX/5bWDk9KVb2DTOdQNslFFaZH399ARB646tmCEWDVoWTK/8msA9KUIndJtu8yUgklx78+SmooY6pIqkrToijrXe+Xf3hB+GKZySWWemK/06k+tyrZXmfJ4jtpgouL/wMfkP0Axue4yQAAAABJRU5ErkJggg==;fontSize=14;" vertex="1" parent="1">
          <mxGeometry x="865" y="-585" width="39.43" height="40" as="geometry" />
        </mxCell>
        <mxCell id="yXYll9jXDUxNb2Ua6R8a-77" value="Veritas Customer Support Application" style="rounded=1;whiteSpace=wrap;html=1;verticalAlign=top;align=left;arcSize=6;" vertex="1" parent="1">
          <mxGeometry x="1060" y="-680" width="330" height="780" as="geometry" />
        </mxCell>
        <mxCell id="yXYll9jXDUxNb2Ua6R8a-78" value="Support Application" style="image;aspect=fixed;html=1;points=[];align=center;fontSize=12;image=img/lib/azure2/app_services/App_Service_Domains.svg;" vertex="1" parent="1">
          <mxGeometry x="1240" y="-443.5" width="68" height="55.00000000000001" as="geometry" />
        </mxCell>
        <mxCell id="yXYll9jXDUxNb2Ua6R8a-79" value="Support API" style="image;aspect=fixed;html=1;points=[];align=center;fontSize=14;image=img/lib/azure2/other/API_Proxy.svg;" vertex="1" parent="1">
          <mxGeometry x="1070" y="-450" width="68" height="68" as="geometry" />
        </mxCell>
        <mxCell id="yXYll9jXDUxNb2Ua6R8a-80" value="" style="endArrow=classic;html=1;rounded=0;" edge="1" parent="1" source="yXYll9jXDUxNb2Ua6R8a-79" target="yXYll9jXDUxNb2Ua6R8a-78">
          <mxGeometry width="50" height="50" relative="1" as="geometry">
            <mxPoint x="1460" y="-450" as="sourcePoint" />
            <mxPoint x="1510" y="-500" as="targetPoint" />
          </mxGeometry>
        </mxCell>
        <mxCell id="yXYll9jXDUxNb2Ua6R8a-81" value="Translated Text in English" style="endArrow=classic;html=1;rounded=0;exitX=0.424;exitY=1.065;exitDx=0;exitDy=0;exitPerimeter=0;entryX=0.611;entryY=1.013;entryDx=0;entryDy=0;entryPerimeter=0;" edge="1" parent="1" source="yXYll9jXDUxNb2Ua6R8a-8" target="yXYll9jXDUxNb2Ua6R8a-79">
          <mxGeometry width="50" height="50" relative="1" as="geometry">
            <mxPoint x="670" y="-450" as="sourcePoint" />
            <mxPoint x="720" y="-500" as="targetPoint" />
            <Array as="points">
              <mxPoint x="164" y="-300" />
              <mxPoint x="1112" y="-300" />
            </Array>
          </mxGeometry>
        </mxCell>
        <mxCell id="yXYll9jXDUxNb2Ua6R8a-83" value="" style="endArrow=classic;html=1;rounded=0;entryX=1.052;entryY=0.589;entryDx=0;entryDy=0;entryPerimeter=0;" edge="1" parent="1" source="yXYll9jXDUxNb2Ua6R8a-86" target="yXYll9jXDUxNb2Ua6R8a-78">
          <mxGeometry width="50" height="50" relative="1" as="geometry">
            <mxPoint x="1477.65" y="-410.5" as="sourcePoint" />
            <mxPoint x="1000" y="-500" as="targetPoint" />
          </mxGeometry>
        </mxCell>
        <mxCell id="yXYll9jXDUxNb2Ua6R8a-84" value="Transcriptions" style="verticalLabelPosition=bottom;html=1;verticalAlign=top;align=center;strokeColor=none;fillColor=#00BEF2;shape=mxgraph.azure.storage_blob;" vertex="1" parent="1">
          <mxGeometry x="250" y="-388.5" width="50" height="45" as="geometry" />
        </mxCell>
        <mxCell id="yXYll9jXDUxNb2Ua6R8a-85" value="Store Transcriptions" style="endArrow=classic;html=1;rounded=0;exitX=0.667;exitY=0.978;exitDx=0;exitDy=0;exitPerimeter=0;entryX=0.78;entryY=0.244;entryDx=0;entryDy=0;entryPerimeter=0;" edge="1" parent="1" source="yXYll9jXDUxNb2Ua6R8a-8" target="yXYll9jXDUxNb2Ua6R8a-84">
          <mxGeometry x="0.4251" y="1" width="50" height="50" relative="1" as="geometry">
            <mxPoint x="395" y="-430" as="sourcePoint" />
            <mxPoint x="445" y="-480" as="targetPoint" />
            <mxPoint as="offset" />
          </mxGeometry>
        </mxCell>
        <mxCell id="yXYll9jXDUxNb2Ua6R8a-86" value="Support Agent&lt;div&gt;Language English&lt;/div&gt;" style="sketch=0;pointerEvents=1;shadow=0;dashed=0;html=1;strokeColor=none;fillColor=#505050;labelPosition=center;verticalLabelPosition=bottom;verticalAlign=top;outlineConnect=0;align=center;shape=mxgraph.office.users.call_center_agent;" vertex="1" parent="1">
          <mxGeometry x="1490" y="-443.5" width="60" height="68" as="geometry" />
        </mxCell>
        <mxCell id="yXYll9jXDUxNb2Ua6R8a-87" value="" style="endArrow=classic;html=1;rounded=0;entryX=0;entryY=0.5;entryDx=0;entryDy=0;entryPerimeter=0;" edge="1" parent="1" source="yXYll9jXDUxNb2Ua6R8a-4" target="yXYll9jXDUxNb2Ua6R8a-7">
          <mxGeometry width="50" height="50" relative="1" as="geometry">
            <mxPoint x="-630" y="-240" as="sourcePoint" />
            <mxPoint x="-580" y="-290" as="targetPoint" />
          </mxGeometry>
        </mxCell>
        <mxCell id="yXYll9jXDUxNb2Ua6R8a-88" value="Audio Connector" style="html=1;whiteSpace=wrap;strokeColor=none;fillColor=#0079D6;labelPosition=center;verticalLabelPosition=middle;verticalAlign=top;align=center;fontSize=12;outlineConnect=0;spacingTop=-6;fontColor=#FFFFFF;sketch=0;shape=mxgraph.sitemap.audio;" vertex="1" parent="1">
          <mxGeometry x="-780" y="-135.5" width="105" height="75" as="geometry" />
        </mxCell>
        <mxCell id="yXYll9jXDUxNb2Ua6R8a-89" value="" style="endArrow=classic;html=1;rounded=0;entryX=0;entryY=0.25;entryDx=0;entryDy=0;entryPerimeter=0;" edge="1" parent="1" source="yXYll9jXDUxNb2Ua6R8a-4" target="yXYll9jXDUxNb2Ua6R8a-88">
          <mxGeometry width="50" height="50" relative="1" as="geometry">
            <mxPoint x="-630" y="-240" as="sourcePoint" />
            <mxPoint x="-580" y="-290" as="targetPoint" />
          </mxGeometry>
        </mxCell>
        <mxCell id="yXYll9jXDUxNb2Ua6R8a-90" value="Audio Stream Receiver&lt;div&gt;e.g in English&lt;/div&gt;" style="image;aspect=fixed;html=1;points=[];align=center;fontSize=12;image=img/lib/azure2/iot/Function_Apps.svg;" vertex="1" parent="1">
          <mxGeometry x="890.0000000000001" y="-150" width="68" height="60" as="geometry" />
        </mxCell>
        <mxCell id="yXYll9jXDUxNb2Ua6R8a-94" value="Call Handler" style="rounded=1;whiteSpace=wrap;html=1;verticalAlign=top;align=left;arcSize=6;" vertex="1" parent="1">
          <mxGeometry x="-410" y="-190" width="1250" height="210" as="geometry" />
        </mxCell>
        <mxCell id="yXYll9jXDUxNb2Ua6R8a-96" value="Audio Transcription&amp;nbsp;&lt;div style=&quot;font-size: 14px;&quot;&gt;Orchestrator&lt;/div&gt;" style="image;aspect=fixed;html=1;points=[];align=center;fontSize=14;image=img/lib/azure2/iot/Function_Apps.svg;" vertex="1" parent="1">
          <mxGeometry x="730" y="-150" width="68" height="60" as="geometry" />
        </mxCell>
        <mxCell id="yXYll9jXDUxNb2Ua6R8a-98" value="Speech to Text&lt;div style=&quot;font-size: 14px;&quot;&gt;eg. to English&lt;/div&gt;" style="image;aspect=fixed;html=1;points=[];align=center;fontSize=14;image=img/lib/azure2/ai_machine_learning/Speech_Services.svg;" vertex="1" parent="1">
          <mxGeometry x="516" y="-154" width="68" height="68" as="geometry" />
        </mxCell>
        <mxCell id="yXYll9jXDUxNb2Ua6R8a-100" value="" style="group;fontSize=14;" vertex="1" connectable="0" parent="1">
          <mxGeometry x="354" y="-140" width="90" height="90" as="geometry" />
        </mxCell>
        <mxCell id="yXYll9jXDUxNb2Ua6R8a-101" value="" style="group" vertex="1" connectable="0" parent="yXYll9jXDUxNb2Ua6R8a-100">
          <mxGeometry x="-15" width="90" height="90" as="geometry" />
        </mxCell>
        <mxCell id="yXYll9jXDUxNb2Ua6R8a-102" value="" style="shape=image;verticalLabelPosition=bottom;labelBackgroundColor=default;verticalAlign=top;aspect=fixed;imageAspect=0;image=data:image/png,iVBORw0KGgoAAAANSUhEUgAAAVwAAAFhCAMAAAALLOJtAAAAAXNSR0IArs4c6QAAAARnQU1BAACxjwv8YQUAAAMAUExURf///wAAAPf39zo6OggAABkZGe/v797e5ikpKaWcnAgIEMXFxcXOzr29vXNzayEhGWNra97e1lJKUlpjY9bW1qWlrTExMXuEhBlCWhDmWmPmWrXOWrVa5rVaWrVaELXOELUQ5rWUWrVarbWUELUQra21tUJCSnt7e4yMlEJCQoyEhBAQSlJaWnsQITprWubWrXtCY0oQUhBrWubOWuZa5uZaWuZaEObOEOYQ5uaUWuZareaUEOYQrRBKjJycnITmWrXOe7V75rVae7VaMbXOMbUx5rWUe7V7rbWUMbUxrYTm3uYZe+YZMXNjjHsQUhB7jK3W5kJKjDq1jBC1jGO1jObOe+Z75uZae+ZaMebOMeYx5uaUe+Z7reaUMeYxrea95hBKrYRKvRBK7+ac5mNKvRBKzqWl5jpzGTq1GRBzGRC1GWO1GTpSGTqUGRBSGRCUGWOUGToQpRAQpToQexAQezoQzkJ7jDrmjGMQpWNCOhAQzhDmjGMQe2NCEGMQzmPmjBB7rYR7vRB772N7vRB7zualnDoQIaXWrTq1WkJKrTrmKTq1rYRK70JK7zq17xC1rRC1WhDmKRC172O1rWO1WmPmKWO177UpWrUpEIS1jDqUWjrmCGNK70JKzjq1zhCUWhDmCBC1zmOUWmPmCGO1zrUIWrUIEDrWWtb31q331oS1GYSUGcWl5hk6ELX3a7X3EGNzOmNzEIR770J77zrm7zoQ70J7rTrmrYQQpYRCOhAQ7xDmrYQQe4RCEBDm72MQ72PmrWPm7+YpWuYpEIRCjIQQzoTmjGN770J7zjrmzhDmzmPmzuYIWuYIEGNCjIS1WoTmKYS1rYS177Upe7UpMYSUWoTmCIS1zrUIe7UIMealvVoQIeb3a+b3EDr3WrX3nLX3QoRzOoRzEIQQ74TmrWOEjDoQAOb3nOb3QsXWpcWlpXsQAEJCY0I6Gff3zsXW5hAQKVpzWvfe78X3/xA6MaW1nMWlvQghGSEIGRAZAMXWxQAZACkQKf/v/wAACAAAAGFRjjIAAAEAdFJOU////////////////////////////////////////////////////////////////////////////////////////////////////////////////////////////////////////////////////////////////////////////////////////////////////////////////////////////////////////////////////////////////////////////////////////////////////////////////////////////////////////////////////wBT9wclAAAACXBIWXMAABcRAAAXEQHKJvM/AAAoJElEQVR4Xu2dfXLiOhLAE0MpRNjIItg5AWPk8hl8lb3enI1/MklVEsjH1ErgJNiopZYsQ+bN/Lb21e4LGJDbrf5S98W3gvBpVhezqhI5o5eXl9tfTIgqLessiUnzmn84w+OsLos0les6ynPGftGtXFy6pYzluVzg+5tZUZZZzKPmDf9AEXEe12UqlKhayKUQJ5z/E2IkJKkrJauIpZVQNhmJdJX8W14rEZca9iZvFg5PXhWr9T8lbILEWZGPm/VyhY7S7J96gLi6Tucj1iyVDzQXac2bq/3jCym05ahZpD6Ioo7/rW8bXs+RG5iN1zdRx81V/yGJy8p9D4PJqzL5Z/zuiOJsFkZov6BV/c90kJDrUArhkDGb13/96pLrVDTrEZpcWmbNp/yVkJdVSF3bZfQ364You+lj1lp53eTl37q6SSF8vTE0eflXCi9J0mYBBoVW2d+3urzGBBQDQEfF37avxcWQO1kbmv5V8UiSzE8jtnu2879odUktVMbmhIi/xqPg9elUwgf5XxLMIasexi31Nd5Y8TesLi/c1pYKkaZFUZarclWXda3+h0oKz4XbddjsP7+60V2JXhOqkuiiqNfxoqsxCV8kWZHmOds0L7ZD0+l78/b/KIsZejXovKyTeMGJPjQbEbKQK3yLN5c3adK8979JjNQJ47yalUuE5xrxZVlUyPzQVru65AK4fX8YcfHW/E4jm8lNHeN/MOFZxTavzZtN0HR3WUIIl9xNkyRbL7NM/iNJ1EPCufzT/qJ/HLi97FWskoWbxxrFSX2DUQ+bdHpBFtNsdVuJ0WiU75mof4xyMRJVUf6hNWi8nDS/0QCrZl7uVJSUFaLkgVVlmVYihzQ/lQs8K8o6i/kftftFtV1uaV76/yh+Xdk/Yfx7e2m8B2P5H3o5ScvsRSqJ5tLfntout1UZXzWv9kEVmTVX6g1VhZTFH5IoIonV583TrPe2naBKI7FQaWVnf4AKTmx5SDp/DCAm72SN2tmQbKUjU337CrS4sPzkvAgVFozrsPlkmn9z9UAsRhgVjw/NS/sTXTuGHayMRfl9tQOxKYVqGvKrRzE+gIGD0kn1XesnE/Muw4pp88JQ8LoKqHl3bEX6LWPCxKxwhyguiGeBZVfBZsm329uI8SH9PUTuezpDBTFc+SW33eYTvguxybKn8+Brqzzh5+byoaHSz/lOwrsoDCFceh+6kpbwbN5cfBDo/VMfLzIwGYOjgbRah17bLM1D72VtaP5tEkbRwqAUaBVYbnkS5GCFBTrLvkd83bibBZbb6GQ1Unn5LQ7FmtwHsQy6N/B6frKCiPw75ONMgpsHLYNZLMtT1prQ6vzxhgz+wTTk2kbxbHMajfDBlq3ObJOZfLOQlZ1xiUhChGZy3iIesgQ1Lq0WzYt6Q/hTiq8NOYBSyij7Jf8r/7Pr5uAGLYL9Bg84fMBsvgy23cZ+li0T83R2W+4pZukP96s0qfrz8ASmzVgd6FuRpKg2l5iihU9YXlVFUdRZMo1V/cLVz6tdDcN1WRQqM+ywxmcs4iEryMWngdSVqgdpLolClZ+JIgODW+98sazTnKGPHW6rM9VVR8kcSmLn0yCCS+r5xOVZpvflcrrgxJS9Vy1gkhp99DC4k4kFtHFZEeILOfq6E5GWCdJCIYusqFDe3vhMssvBJzaEFUb4ysHXpawq48ih3iSKeDZDqd/xOfQuSSC5Ylnzkh7w2qWLQF5cu7e4UBVoKWJ5N9Xp7d0Y+mK0v+DKpxa/tDT3bs4SJSUik0xnJ7d3E+hbib6PEVkUDvsYq/pkvggm0jY++TnCuvnkLrTouQEkLr4uTV1KfXXIfdP6lLDbh1PaDIRDYQXRK2lG+NLB190EySiS2qob6AmjOETdbr2RS3sl0qPExdd9LpMgKQNyV9uMPvHYvHZYSFJLTx30ItmyeZ0PUiPgxdZ/Hzvm55OtD8986KwwITzOytT0DNF7752VxJlDHQ2dh60/4safpRyjgTe1+FodDTMuQH7te4PJ49xBI4hV0PIzCc/MLjEb8HwxiesiHVl/feV5f3lWYN19SV6EKPbt8G55cEQA30gL55nlsWlIvY48yDuHb9mypaIOV5B6yNRcCVsNkhImUqxwj+zI6+5KXxd15/YM17AtMvfgYKvwjwvP0Fa9l6Mor+/g64r0aUB7npvKMH7nT83LAkFIUuD3GXelHxGnji0sWPU/wJWpExq9fWleFoakcKmRf3YusUmKOf769D4bPKl1ZXqMWBnu4+U+41bBLe6ad+KQlq1Dfyw6P0mu+6dJM4yCfQOSVAy9hys2qZPGJ8nMock2LabG/E0wrgyry8owexrJEGZtG6cCJqnMHVINeXG6AyF3cOjodx4kLeFTYyzwyTyycPF1mQgkMTiSFM7lpwFCRV5d11K0ISZvHcOXwIj6blgboUO0hoNk/SKqiivMAfFjUuTnuvq6Jy84NJzAp277yhGEIE736yiaC5h5iF2KQdlZOmFGt6DOypNe2yq2U80RqMXlKydf9/o8p2vuwPgu7XNkgiSYfLMOVjeXMCA1Al5sqZgtT2J9HROBJfPj3D86RrK5ZyPGsTUmF0V3DhrhN/Pr2BIGAn/Tme+34g6xvw40tT4vjw6+Ljtzw3e4oMi3fIz36OBuVUYkwZvOVJy9OWMGCYJnxse1EWML62cmFfqhYIV/hCaKyAW56G/qw+HH3OO+R3e3iOZVIDa/m9TYzC4rMv8CIqLGLwZpXXMHuRIbD+uQm07x2mHm5AtaKTDhH0YgPCtTkU9yMUPXk4KAdS/P7noBrxP0n8lq44lkUuKOmoseWZwoThnbHS3ZUpr31toxEBAdO2ez7pBrm6e1/pUT88PCUR6vKPwdMrIs5ofPnqrZbf7kSQmILi2bFyAx2HUH/GJVvbiItetkyfFgFlde3X9pNecnNj0nK4KazC3AgGs0nktFJr/sQvtai+RO7TX4osdSkCydHHs/NL/vk88kUHvKuUtJCsnsvgP9nAAZaxfXIrm2Dk7y8j38yqQEHEsqyh6RnxdA5Fyy7CSprD4vSz/P7ekL9i2Sa+5HuH1L/U8AqZqS5joaVC8+3+V9ANw0ig9dm45CNoyr68Xnj4+1i2uRXL2ibniTytF7baXLbsz+U3bjK7zRI/CtGTrdw1NbsyPRKjIOLblyW/cvCOBZYXV9pG7wtHr57HdzjTYbbNNPUtvktlq2vpqXzp1Ckvu7h68bkbsyR0XxpGfiJb3A2mBrvImhacKOox8fVHLZ7dqt2uEQh14BeeWV5FzqvzadoZ41Ywsgye/86EuF07m/++R1pWVr1wgHvN166IaFNnXwSgXKxLN4vbRaH61ZOMmVlq33Pkakr2vTZ21oXt65fhwHOlrnqHP5ZqVwYIB9EUrnym3Su0Fa5FRl9kE+d+2G+Q5YOa+IVDcxNgtU6rZ54SFhJJelvgaS+tpuvQK+YEXi9rBwwAWu7F+ez0x77bG63eGlc7uSm/eIfpH1vUOVWYsxZanTBxPgLs6tbkT0ZHq02Er/1AaRXOG/kblM7NHwpk64N9eyEwFRXWFtCvyS/mpeqwF0oL10bld3IR4rLdLXBZtoYFFdw9Afv9TrhZFVqZlqUXMw+B1Ecud+kit93QCz2zejGdZ/jaapVnPmtbkk7920mzHYB/HSud2o2NzHUOC1T4GgDlqVyKoIrg+Z2/Kx3DAF6rmE/SY/ye28af6z+QMadX7CbJOzyqWkGKkbgOiArUmSfpF2bG4MOt9P53YX11ktxKXZshVlMk0ckqw0F+a0X4O+gIFWxh0NkPcdlUklBZFcx7OWUbw2HzrO091plxdM749P8hrhEa+1mdXxyKi1MwEWUOfXJmXtZ+d2JddJ56oTVaYnflNlV/uvHN25jMbdipVVNwA9Ueh183cdBK5mtHQQDaNzHSSXJDOzPFb1QR6DJ0611Te2MglgcbemrBSc1LJVTwfRuXi1YPN1pUbolMaRzKm3kyWSDkQXTJJriIbZEkRhJBerFojl/ASdHa+N6smPtxt+MWO0LJ5rsxHUILmw4E4eTQpX4mfn+kmuOtRtcshYWmp3bZKUDrqB3RvqRxb6DOMWrvUmK+jOvt3aQhKn07kqr2uUWlHCX3Y5d/Dl3tIEmuC40M9TofDiLsCDoSK2lcoH0bkCoRZ4PTee4cwLk7YkPLFmtb9QtWX6JxZQoGNwceFO7ogQexDJtasFm6/L7B2EYpeORLt+kM0bD+G32rWCJReKUqKaBXrp3CPJNXf7IMQy9YzmqKqX+Nahcw6913nEV/qiJrAaL4JysZeYw62nkNzY0otA1Li4S8SX5oBEi01eHRckAAONKdRqDEq7XT5jkrFeOre7uD9MHxRnxoFnqjcmaml3cKde/aLsJvauVtq3b1fN37vE0KnmOSZ/F0ZyQbVApENmTJnLp9fpeHMkZU9fOKODVY/tLBuwoYFORAZswmNUz+YwOheUXFt3kura+Xwad7F65XPRkhNe6CM30IZWNi/oItbNC4wMqXPVWGrTDsRE4XUM7Mqp23FLNwD9FyAPjRfNCzrQW4TG9dS5XcnV6tyILIV5TkzlmBn/gl/jOzxQmn/Vli307wM8tHdoMgmyy+VgOpdkM+2lD+jRl87NI5Z75t75ewcsK0ByofMPY+TpNS+d211ccSSB5hrmD/Jyinq8dETrysHqVfUj6l1QPFdvikFnP7BDZMNIbtf9lb4uZoAOZcK/M13EsxSfl6diF85Z6p28kb6FGwdUu0DWSgwRz5W/eoT92flN88T64DShiqlB1rHeEgN6swM1p+g2KkEk9zAqRrjjhG/W53ykJWPUht0m+q9GZ9pvAFY749qoeOrcIzv3QC3wYuS0tmr+cY/ZGDxx8Ijfcr1Do69RlD9Ff+PQLTDC6NzPV8eoWRhdevXZj536nmqZ6Deo6b32t+CbtwSJLTQemurE6fk7NzdrYvxIA++87FkVBXSoA3xfy+IcEEZy94ubFLn33HQq+uiGpYvVewywnwEJngm6WU8YnSudCOnrGjUCFUVhdKvwFV8a3HLEXYT+OQcCCznavAmkcyP564zWF00TQsy9rrd9ZshKq9chR9wBiI0AgQV8NXIQO3ceL1NjDbPcsXaVHjwzK+WRtaoDRj46+L47bfT1xUSfmnQYBhVEcvPC+LOY+Po+vDRbavnKfWDXB1GW4k4JdhgXWiUK5H0d+rN66dzu4m6Nvu6kpUst813GtIdH/P5z7XN2RejzuIn+WnP8ZPQgkmsiP+opZumkN+4zSyZymmO1h6b6AlLgRpnLTVsE0bkw+lOVxDKpwlbxZcTJI1ZAShSI6zl0FhlWchlwhooszJsPy62lQjBOHrGEAQk0wHbWxyG0BNG5ACKFq73VhOXmZVrebmr849dlUeNmuOyBcjyA8nIYwDec5Nq65ZKkMmaBqKbiEQ0v8boBOoWW6hfXoZtTkNiCBmrvlkt4NjP0JxvTPrP9OLptMniUp9KH0KASBw1+kmv73qqdR/NaI7H5RDWtkLU4OrA5YgF9BPDVXCRXu7g9JfftHr0m5m71Y1otH3yXV7nkCN0AtoXP9YsLV5seMYDOpWn21aDIiqX+i4oejc7JtLR7xPQeCM+O9CG+c+pcJlwbgfPyh3FvF5gzUAARovX3+Eb/hZl+QzijzlUNPFyTCpGlh59Uvd7jMqKf6x/NZUCAFBpgbwyuc6HQ9G4OhPs6RA+WaHdfj7i5DMRGG87I9Wn4wXWuXtBYVYJOgw3lEZt2n+NqUDxRZos35LrWYiO9WjiPzh2t/PuFyBW4Wpv29vEz0OoEQ8T1ZbmfjCuNeQPERs+hc/t0y92j5vybhHeS+vfQ5ZbqKqZxaoHi15PrXMr6DxFSJGbd8CY9Yt+PScw2LztW6oAuObXk0nsXy9ZAtLBZvbfewmtp8HBc6XGj31kG17kdyR2h6qxxGDucSuGtvDW7JdpwNAp41ntxg0iubwMhHUBa8AsGn4+0YB5LclQXCliHBd5qCRJbCLm4kW1xLzejCp/GakGM21q3NARYXGyJoySM5HobSceARxYPmXtGy4yuYLfTTa3/Jim+rC2IzrWcoHQhskuu5FV6xF7Rsivj6rbVKZD9NXa1afPtdC6/aS5qZts5A4XFOOahnXuc6r+JeER/bhA7N6RaQEmuYitWPtEy0wj2ScsJ5Ppvwkr0cxpGcsOpBbApvga/yT+GUcDtGVMP+loxOkd3tw4SW3Bv2gZjNcUOydOVu1MBj56TWvdQTIBCvBx9eu7bSe6RtcCMHrHPiQq4hzMVh6f3gBJSht7RvpvOPbIW8to8Ib85A+VCBA72u3w9DOAA3fm18UktgSQ3SGRhR/ehFbE9WubaX5vo+4UoDuugj+JTe1CtFnYEsXND6txo1ly0YdeRY2qu/3KOlsWAOlVq5mvlYuDACdrS/fbWwm5x1WlJU4MbKoBKRQhQ7dIDgwGw2sYTbKYnSGzBv632MV1r4aOXzIulNtSpfiSCmy5dfv10Aulm7CE/SHKNSnRID61rLXw16okLatINtFo3/TUxvED22OEpM2juG3YDB3SuZXE7OtfY48aRY8n9/Cp8aYzI0pGLR3wNLJzUup8fuNDvaIge53sAtWBuhTyk5HZjC60WU2qiV/PvdbjUlkFNQA5jig+AEbhBFkAv9DdQnWyChbcruSF17pGd2+rUEsnlNemGLX7i1BoaTvBljUGa+XWE2z6hoR+buaFOcUhrwSi5kqukhB7oHXmq751wxB1UIJ1/PfQJJLrmDf8D8ObIZwwcFd3dBec/jSraCbPkKmynJUdLVCImgrJ1m+pTdMEGQrh6uHcgJCzZTqRuaF7W5pySK1EddZu/6njNce19IuiXs69E8Kr5V10YLk0ZGWb/UaDSY0Cd+37soWmeClX/ZVC96QL11D5CD8CXvZBR4NAtMpOW6J28hrmu+v48dm6LKJnB0TKgf0KXBTSi4KuQP4YOFhwoZhPvU9Mzpu3xcyY7tw1PYI/4S2saAXo1HaTJogxolkjvF7j8/voG+JA9edk9A3msc8NtaAid+0G8mgNyNYHuSJsYMOsOJH8BSN6Yosb/SSzGI83LmBzep2NroflDAOzWwhcRB4agHMa2DDwAueDxl39L7gGlO05xT8fOeATskj35vPVtjyQ3oFpwkFxJrG98yXC9FiNouv3XDh2B8TOkYleQR+BMW8Mkffy6U0fxXO+65GNcJFey1urEN6RYQQm7gzu6AN1koL+IjohnRuGl8gt/eMRDSq42ngsCZGzQDZSgHOSBLXANaUx8lyaJ6sjavE/LRsySveY9snNDJiidJLfv4gICdZjJScAGGW/YPW1HtE6N6ZQPj/hIckOm1p0kl+h7ijPs4gJ92TYHaoXAtZG6Yn+YiCTG895jdq8emAEl9zj7O6jkQsmG0ZcHHEFRXXUPHfVhXBvHMdB5kUTdIHBQayGE5G4so/k+gUYVtHq+wrPmDPMnAWLLtNh53TUPg1oLmNjCJ5DkovOVUBfXw8BMAnf1Yg6n0nZEfGoc1bJ96/6g81kLoM7FNhqBapsOc5DkEV6OkXuhMC/NVm+Hs8QWdgCSu0FL7gNQH9I6OjWFZ2pTZBijBTdXubQZslbMS3Kf0ZJ79ajPa7TmyBFDyTRFTx0+ANd1fM+wdQtekmsdp/UBqn4cKNXdgYxjdCAZcFjoiPPFFsijfkNDSy6JO5/XULVPfwEW245J+eJxugjZaiOsznWzc4k+3urgmT50rJOGH20zwDT693Li18MP2XzyTPFcCam1IoX20OQV9OGFeecU6qICZ/8q2fXY1STR0719ZzsaZdCDd0c7t6/kAiXO4rb5cwNZmRL6eel37jCSHrHJZVPMnW09GFdrQb+h9V7cfNb8+QNAfTQw777VL7YGcw5dT6104xaDS64+e55XzZ8/gYv9FSz1bjYRF+Y8kKj9u94eQuLr7mMytM69WGmVKTtaXMvqUoGu5u9CzAfqt3J5A6yububy4JKrt7KYaP78BbH03+yxBLFFN+SplzF9gJq53FzsgMF1rr40hP1o/nxADAzl+GBTeKsGdSrZuLy0iL37eKhnQz9zeXjJ1S/useTKD7P4rKy69l6Ah9icI34b9WlCU+kraAbXufrF/ZU3fz4ETgV/0KfTD8lS4/KyFOhGbIFnBWRGDi65XfNkD2XNn1sQi2KQCN24YSTSI94YfBUpM4nrHBjzzOXBdS6gFnSSq9zg5u8gvsfpd5CpJQWfQ4WnEOaZy4NLrn7oGbC4Fy/m0i/FWPRouR5J3WB6OsYup5aiODNPqB9c517rr6CxFnZMra0hL1+VYeovvbaR/diLR8p+No6dGV5y9fXJGidiD1QB1YLmamygL9KTMj4eSMWTFMIWtxhc5wKxBWBxbY0LP5kUTz5h3j22PJBd8ZDpI2Iy3fCS27ynTZ42f+4Qm+c7HUDz4qV5kzvyidb+sA+eze5gRJ4qChXFHzC4zgVCjsARVKheWgerSrcTyYfYZkTlFexUKIsZNaRoaMmNgMUFTpRcQ6fXtKgGc947G781e8Sqj4dubTg++zm0zv2pj9NW+moPYjieo+OXXF7v1X2wrJK0eo97nEUP0tdFia1kYMl9v9Indivt2JMIaMFg4K3PgMIHi0e8kVZv89IGnrlUnAysc6MYSK3rteV6jt3PDujjEdu6Vm/Sw4vbRo90j/0PLLkRcF4QGLNs8NNhpNXbwyOOr4GKqz00n32u0J1l5rIo5+3QxcA6F+qQV+iLiHymGitEM0jfByK9AePHSsWjLh5fz4xLK2/xS9F+8AaWXA4oUb0l9tMoRCZ6esSVcVbiTvEkM/a7+b86qHx6oui0dQv6Zh5QC+L/eS/uJd0N0vckWjymRhswr26Eaebydt+31bWyvKfkAsXPr9rO5NEUa0BqOT4tiec9Lk2xQzPSWXzarWKQihu0zgVujqaDuSJa9lpcuVkX7dOSLhD0ELIurHpqejacVnJ5qQ0cUb0lBhSsOiA9YuwzdYzNI9ZDD3rauVaW99O5ib4EDCgLhdrDMoeRoqxlmDrCV666QVlqzZslrvW5/SRXf2+gEiIgt05Ll5mXvQYUktjUuvoYVraqdU5aKwaUOEIfGuvNXJZFcY0rtt1Bq8LfI9ZXd+jpzotyPofWS3K7u+cHub7/cKIP5D2rW5HMHHTDuMpwzUx0EOkRYz5KUwUVRHKROhdqCQCVygN22/OuCp0nM2wwSv5wJvyLF1VnS7sayuu462WeVHJfAG82/2py0yLT56RYc/9jp1HkozL76Z0Hsmby8vRaIyCuJyj76NwEsKygHq4ZcC8+Xv7OawfdQMXKVzcQqOHZni0F5lC5nqDsIbmkBrKj0JHeR/1zf9B4gScOlv544ucRR+vUaJH9Bmcun87OjQAj9/KyBh5XveSOW+f8iFu0ushQz9gBZGq2TOgINvVOaOeWQKjjoGlbG31fi865LFu7yQ4Tt7pTYjthZcwrnczOjaBjv/Cd0Z8B3rROW0qkbDnEINjcwamQS2uu8U9NT8LprIUr/X2RnwgaSSvt79KchY2yymVnS5FWr9ToxrvGRGHO5QexFjA6N4FEAG4MpFcLG81xzYgsHZIWcNfMFrwcGa/JpONnkkT5tU5kLQC3RQIftq31Dpr2LGwk9x1bqdYXG2HNES9q806Zp/ZocRBrwa5z4RL8CTzBE5DcG93iSqaW3FeLV7ijrsJm4+m6Qh5zImuBgHWahrfqK0K2FdDWUeoGSzXoIZTN4RxxbB6UcSlq1Ai808QWCHi6gV43L9EAeGhz+MPkswxpHw1ipn+y49JSU6qmsGM4jeROIWNxPDLczEd9RYjx/vPSwW5Q0Zau9BL+dGO8AhuhY0AnyaFBcVz5TU2qC5Dcj8CNHm45A9WGtbtmyq+apGYboXI443MKO9fQVuWHaaGAlhbmxVUf5+gRfy0vSSwNYl08kECSa9a5RH86SkEL060E3vds7e//8OiQqFBTOvYnosjV2hjEpK41lCeQ3BjouisRUFhhBxBF3dgb0D9ICWxejUB6Wur7qxiQUWwRlm2b4XUuKYF+0fLrmreGhd7rsrxrT7Q2RwXajO+zJDPfDyac69Zx3fY/8ZBcUsM9P8TU9GEXsb7S7RnVdDC6SlySmLkwWxm0wA93/mRoOxe2cOVnWVaJlNpbOZ4hf+fUyeo1gbZs2wxt55rOf1aWcg3AysCP9rONJETCfnhmN4eN5xoMBblItq6X0LtzfJdiS1cQFN7VqNGwOte4tva+sMA4H7MB1yG+Tk3Fnlb61FEPGs81ngkX9ocbSl64jXjht8xbelnlqREkEc86e3lAyTXqBPke+7cmQLnA3E2WeAy36jbTs1Jn0gmOhNO5lj4fmBbZ70BRjXMXXbcccQOt0rWD/mlztS7mR3tpMMm9ejTJ7Vhf7twBCkp4dCIl2fzZ6djVmPWrjtT9+kA6l/CV9jZ8gOw7BzSEpQh93UX+XkCDa+lX11vqZ3cGklzLKfB2YQcMMPrgkmLkvk0kv/zMHE38gvapSF9kBaCDguhcy8BrlKWwAzr7u/XawyN1Bqq5ghEVJ2ve44w6SwF9SADJfee2zRk9fwuKl1+iZ0y1iZL63poj9vR198TlHLb7+utcuTPDl9/BVmi5gA5L2cISMJY+mb+ZuW+FEdVByPTb+0ouor8yxsL9YAHpF/9RkSSBVKKix8lLqXVmG6Pa6adzCamF+WSnXFvsOBQFAbrzS1MXq1mOgSvFpa/rfdOidWHT6LnRboYkt1GB8lubjNsddO6yLBE0sdOv6f4HvNSdN+/V/w1j6QljrBTSucXi4uLh5cn0vH1QLZ1ErhsS/eC38ySZFkTjEffsXGi0PfeY1QKocxdy3dMczOd8Ia4dH2ew7z5wkAKLfMoONQ6tCre7fghPClQHIfOAD0hyb8oyHaEun1kKA49I5sB1f/irxz27M1Dq1m2pyut6Ly2Jbb1oPzB38ofmREyQAX+PbuuQkyYVfR+tqyCLrEznQlSz2j9mu9PfuF9v6QQOSO4lRmglonaVW+mSLIGd/ZL1MBg+INNllj35+2MXixqz0ez5msytBd39T4ufeQ71v7h8ww3ENRJJmv/pgbRsHbJIzOLz81unJmptPJtgg12EXq1JuKEx+rpdJjaVaCiesTH2bZlEgG5ZEp/haMFQcyDwS0uFNZ7i3kTtg2f/7TgCayQ3yr4+D+9kOkPuYwpMlRloF9mQlrC/boPzRbn3JI6ekGVq7Zb7Bb2/Rjxj1+idsU1fZxUSkS2+PiQkZPpoi04d8JbPUFVmjn0rG6h/gHAP0BtA4hJhCwbP5sYu/W2eiyluxBqo/UzQ+76+1BV8kKTfM+GDS+8QFQy6RvZMhsvvDeRl70eXLOGncOIfyfJBdcvFZ5HpHG/aQxUwBqjhQBIeYpgXUZ1yU+O1eMPv6aNVgh90C2S6DeRlD9fygGUO/iR671E560fseNri0UFlmebxamGddkX+PABBDcVmFuYGWlBzIPD7+ZbmtdN4Zu5WjkmZS0LHTAQUPO7YWCIiYUiKuYN7OnedmgSGULSI0kHh2DGFjPrUGeCIHH3d1Dny7jBXgOapf+2lFjCuq2Dl3ZB6l5AktUyGOcQn8k5qbEhs+yZd6dC/1liQ+oZzgvx4T2ZOvm7mscMax0gfIkrjcXtPwFYjO/rkacw4zIGQUFv3EACU9Uxz0aMdu5Fua4g2m6qvH6iFkEx0m+YboL6WC8Y9Y+rc8VDqz9yrWHpD4VeXZ7P8Eh1HyIvaMwbKrYGgPC2z6TBSu8dcqy49Fv/CAy1uvi4T3nEO8yxTynJpH/SI2aKwGdrMs/gRgK9cNIJY3XnfWpMptBVFnfQZlItlAdTffED7DJ3r4Orr9qg7vUgA756O0ltpHZzCR5J0Dx8dkbd7L/tC+NQlXch+PPZxmIi+g5p8GvwHG3sQQdXQn7Ac0zfJRlyMELVZHwi/CcGfQAGx/nUvbiDG9cgntJ/qJYlLjzJp2SbejXl3gFPlt6euHSAIV2bSZ1I6uVq7HHZ37R6iAQxKvbmfq+nJCyLwx/znhKt9zP4BH9CZj6/bhkPtWU+tFRQc05qNSh/cXaR4UrskyOSHBLD9ljngpQD9pIclThGZlu1vdpNxh1npRM1JdzFsA0U6Oej5+p/76EOCazlK8yqtsZYZT8pUTFyWVmqE5r19IOC5sm1xlsV9T9BlVcolV/6N4XtKiY2TunTplqW0egiLT354DFruwtriayCm6JaY2zeWV8rLIReaBY6iB55khWD7GnM0o56W7SfAKCgJLX82rzk5+NWV0ImoqllR1HWSxPFiwe+4FNZEimuRptXcPElSQ96je0iHGtrNrOW8Q2JM+wCwUZXO5CIrZmn6w3lVd/TpHtIBGiYrodXZKjjVCWNsYuQQSjeUbRh7o4xu/Co2RY/uIV0WcNWo8G+kEQLuO2qvB1T0OAh4hEk+UuPJn+GJXItU+qISrwHlCTq+o0B1UhmUn0iDNxBvaa0dZe8JSQQ43JaepM7FyPuF8QR6WHp1D9Fg7KwBz3c4JcQl790DygpzV09XImBO4Q52fsHdwROXAKEvrFcWR4NcW0PI+JxmWBteOnTK9YKJAOcJW0RA+9o9/U7kh4UMvK+JoPuYgsQmB/PtmyiFhoVLDaIjokiCm5yJsXuVuRXOGYiLfJDlZSGdhgaeGFN0tGcniQF4mN4OYJVtbsJLEXk87vJ4yPdSCg1xNgu+s1HRqyBBR1waay/o9zBxj7lauyQXcYQ6MtNAFoW5yjl/DK6GAhHdLZ0mUmJgIY/AkswyGv/tNvSTEhK+LO8Dr2+QHO8O+2yQ+zOGyDG886eUUVvvOBfUQMR+RTUKQtbmeVUSc3Osb0H0kmSOCUczVNz2/9VxKmz1Z/k5KhU8IOvbap4H29+kvdtrY+OJeTbzDnAC8veDEFVAk28R64t4yevbvX/HPMKzObXWqLOenRNOTMTjdV2XRSVA/42qvmJljTgcuhFp7bWzRUlZIRwcVp45s+NFxFUWPRWSvIX8F1VZZ8lddMHtpamSSXGdOKYnySLJUHElWtw1b/nTIFJHXHF+p6oVkmyZLZNkGi845w8/yb612J2lE/geytxqFghfphNUmvm7xMd7IpdS16ktLnC15FI73F6jKtB4spph+wxtwp6V+XZMZ7h1uLwcS+37ZKhAU89JPM0sE24Pobf/7bWVsjtDn4PYPE9y4AiTWthlPZNbKL7vWOgE3XfEcb4X21eglaXcFLNsvcweV2V5WxSpNLDR66pg/3m5VSz8injkNjfamSIOPfIOOH2HqfPAV36Z+le5wq9eKyt93vpPtG99INguzsHATxf/8yFJhT9L3Z/f52mYeC6i+Nbz+fZABTObz/1L4EFmriKggQ5W/FGQtXefYCeGaW7y3YkSVBynH6LHqMA/G1L7HZhAswl3suLPQw2Na9ZhCCarE/T++MZ4jVzFMUqzsx0y+y7w2lJl4AcbqjnYn4XjyFUUmz6Tmv9bqCRySOnNq9V/P7qIJnp3bBRggKoBl/+WtgWPH4McGsoH6XH5x/POs5no5RPTfB6w59l/DEIW9b1Lr4sWVPV0+ye0Bh4WWV147G6TqqiX/5bWDk9KVb2DTOdQNslFFaZH399ARB646tmCEWDVoWTK/8msA9KUIndJtu8yUgklx78+SmooY6pIqkrToijrXe+Xf3hB+GKZySWWemK/06k+tyrZXmfJ4jtpgouL/wMfkP0Axue4yQAAAABJRU5ErkJggg==;" vertex="1" parent="yXYll9jXDUxNb2Ua6R8a-101">
          <mxGeometry x="25.289999999999964" width="39.43" height="40" as="geometry" />
        </mxCell>
        <mxCell id="yXYll9jXDUxNb2Ua6R8a-103" value="Speech Correction using Azure OpenAI GPT-4o" style="text;html=1;strokeColor=none;fillColor=none;align=center;verticalAlign=middle;whiteSpace=wrap;rounded=0;" vertex="1" parent="yXYll9jXDUxNb2Ua6R8a-101">
          <mxGeometry y="60" width="90" height="30" as="geometry" />
        </mxCell>
        <mxCell id="yXYll9jXDUxNb2Ua6R8a-105" value="&lt;br style=&quot;font-size: 14px;&quot;&gt;Azure Translation Service&lt;div style=&quot;font-size: 14px;&quot;&gt;e.g English to French&lt;/div&gt;" style="sketch=0;points=[[0,0,0],[0.25,0,0],[0.5,0,0],[0.75,0,0],[1,0,0],[0,1,0],[0.25,1,0],[0.5,1,0],[0.75,1,0],[1,1,0],[0,0.25,0],[0,0.5,0],[0,0.75,0],[1,0.25,0],[1,0.5,0],[1,0.75,0]];outlineConnect=0;fontColor=#232F3E;fillColor=#01A88D;strokeColor=#ffffff;dashed=0;verticalLabelPosition=bottom;verticalAlign=top;align=center;html=1;fontSize=14;fontStyle=0;aspect=fixed;shape=mxgraph.aws4.resourceIcon;resIcon=mxgraph.aws4.translate;" vertex="1" parent="1">
          <mxGeometry x="172" y="-159" width="78" height="78" as="geometry" />
        </mxCell>
        <mxCell id="yXYll9jXDUxNb2Ua6R8a-107" value="Improve Fluency &#xa;using GPT-4o" style="shape=image;verticalLabelPosition=bottom;labelBackgroundColor=default;verticalAlign=top;aspect=fixed;imageAspect=0;image=data:image/png,iVBORw0KGgoAAAANSUhEUgAAAVwAAAFhCAMAAAALLOJtAAAAAXNSR0IArs4c6QAAAARnQU1BAACxjwv8YQUAAAMAUExURf///wAAAPf39zo6OggAABkZGe/v797e5ikpKaWcnAgIEMXFxcXOzr29vXNzayEhGWNra97e1lJKUlpjY9bW1qWlrTExMXuEhBlCWhDmWmPmWrXOWrVa5rVaWrVaELXOELUQ5rWUWrVarbWUELUQra21tUJCSnt7e4yMlEJCQoyEhBAQSlJaWnsQITprWubWrXtCY0oQUhBrWubOWuZa5uZaWuZaEObOEOYQ5uaUWuZareaUEOYQrRBKjJycnITmWrXOe7V75rVae7VaMbXOMbUx5rWUe7V7rbWUMbUxrYTm3uYZe+YZMXNjjHsQUhB7jK3W5kJKjDq1jBC1jGO1jObOe+Z75uZae+ZaMebOMeYx5uaUe+Z7reaUMeYxrea95hBKrYRKvRBK7+ac5mNKvRBKzqWl5jpzGTq1GRBzGRC1GWO1GTpSGTqUGRBSGRCUGWOUGToQpRAQpToQexAQezoQzkJ7jDrmjGMQpWNCOhAQzhDmjGMQe2NCEGMQzmPmjBB7rYR7vRB772N7vRB7zualnDoQIaXWrTq1WkJKrTrmKTq1rYRK70JK7zq17xC1rRC1WhDmKRC172O1rWO1WmPmKWO177UpWrUpEIS1jDqUWjrmCGNK70JKzjq1zhCUWhDmCBC1zmOUWmPmCGO1zrUIWrUIEDrWWtb31q331oS1GYSUGcWl5hk6ELX3a7X3EGNzOmNzEIR770J77zrm7zoQ70J7rTrmrYQQpYRCOhAQ7xDmrYQQe4RCEBDm72MQ72PmrWPm7+YpWuYpEIRCjIQQzoTmjGN770J7zjrmzhDmzmPmzuYIWuYIEGNCjIS1WoTmKYS1rYS177Upe7UpMYSUWoTmCIS1zrUIe7UIMealvVoQIeb3a+b3EDr3WrX3nLX3QoRzOoRzEIQQ74TmrWOEjDoQAOb3nOb3QsXWpcWlpXsQAEJCY0I6Gff3zsXW5hAQKVpzWvfe78X3/xA6MaW1nMWlvQghGSEIGRAZAMXWxQAZACkQKf/v/wAACAAAAGFRjjIAAAEAdFJOU////////////////////////////////////////////////////////////////////////////////////////////////////////////////////////////////////////////////////////////////////////////////////////////////////////////////////////////////////////////////////////////////////////////////////////////////////////////////////////////////////////////////////wBT9wclAAAACXBIWXMAABcRAAAXEQHKJvM/AAAoJElEQVR4Xu2dfXLiOhLAE0MpRNjIItg5AWPk8hl8lb3enI1/MklVEsjH1ErgJNiopZYsQ+bN/Lb21e4LGJDbrf5S98W3gvBpVhezqhI5o5eXl9tfTIgqLessiUnzmn84w+OsLos0les6ynPGftGtXFy6pYzluVzg+5tZUZZZzKPmDf9AEXEe12UqlKhayKUQJ5z/E2IkJKkrJauIpZVQNhmJdJX8W14rEZca9iZvFg5PXhWr9T8lbILEWZGPm/VyhY7S7J96gLi6Tucj1iyVDzQXac2bq/3jCym05ahZpD6Ioo7/rW8bXs+RG5iN1zdRx81V/yGJy8p9D4PJqzL5Z/zuiOJsFkZov6BV/c90kJDrUArhkDGb13/96pLrVDTrEZpcWmbNp/yVkJdVSF3bZfQ364You+lj1lp53eTl37q6SSF8vTE0eflXCi9J0mYBBoVW2d+3urzGBBQDQEfF37avxcWQO1kbmv5V8UiSzE8jtnu2879odUktVMbmhIi/xqPg9elUwgf5XxLMIasexi31Nd5Y8TesLi/c1pYKkaZFUZarclWXda3+h0oKz4XbddjsP7+60V2JXhOqkuiiqNfxoqsxCV8kWZHmOds0L7ZD0+l78/b/KIsZejXovKyTeMGJPjQbEbKQK3yLN5c3adK8979JjNQJ47yalUuE5xrxZVlUyPzQVru65AK4fX8YcfHW/E4jm8lNHeN/MOFZxTavzZtN0HR3WUIIl9xNkyRbL7NM/iNJ1EPCufzT/qJ/HLi97FWskoWbxxrFSX2DUQ+bdHpBFtNsdVuJ0WiU75mof4xyMRJVUf6hNWi8nDS/0QCrZl7uVJSUFaLkgVVlmVYihzQ/lQs8K8o6i/kftftFtV1uaV76/yh+Xdk/Yfx7e2m8B2P5H3o5ScvsRSqJ5tLfntout1UZXzWv9kEVmTVX6g1VhZTFH5IoIonV583TrPe2naBKI7FQaWVnf4AKTmx5SDp/DCAm72SN2tmQbKUjU337CrS4sPzkvAgVFozrsPlkmn9z9UAsRhgVjw/NS/sTXTuGHayMRfl9tQOxKYVqGvKrRzE+gIGD0kn1XesnE/Muw4pp88JQ8LoKqHl3bEX6LWPCxKxwhyguiGeBZVfBZsm329uI8SH9PUTuezpDBTFc+SW33eYTvguxybKn8+Brqzzh5+byoaHSz/lOwrsoDCFceh+6kpbwbN5cfBDo/VMfLzIwGYOjgbRah17bLM1D72VtaP5tEkbRwqAUaBVYbnkS5GCFBTrLvkd83bibBZbb6GQ1Unn5LQ7FmtwHsQy6N/B6frKCiPw75ONMgpsHLYNZLMtT1prQ6vzxhgz+wTTk2kbxbHMajfDBlq3ObJOZfLOQlZ1xiUhChGZy3iIesgQ1Lq0WzYt6Q/hTiq8NOYBSyij7Jf8r/7Pr5uAGLYL9Bg84fMBsvgy23cZ+li0T83R2W+4pZukP96s0qfrz8ASmzVgd6FuRpKg2l5iihU9YXlVFUdRZMo1V/cLVz6tdDcN1WRQqM+ywxmcs4iEryMWngdSVqgdpLolClZ+JIgODW+98sazTnKGPHW6rM9VVR8kcSmLn0yCCS+r5xOVZpvflcrrgxJS9Vy1gkhp99DC4k4kFtHFZEeILOfq6E5GWCdJCIYusqFDe3vhMssvBJzaEFUb4ysHXpawq48ih3iSKeDZDqd/xOfQuSSC5Ylnzkh7w2qWLQF5cu7e4UBVoKWJ5N9Xp7d0Y+mK0v+DKpxa/tDT3bs4SJSUik0xnJ7d3E+hbib6PEVkUDvsYq/pkvggm0jY++TnCuvnkLrTouQEkLr4uTV1KfXXIfdP6lLDbh1PaDIRDYQXRK2lG+NLB190EySiS2qob6AmjOETdbr2RS3sl0qPExdd9LpMgKQNyV9uMPvHYvHZYSFJLTx30ItmyeZ0PUiPgxdZ/Hzvm55OtD8986KwwITzOytT0DNF7752VxJlDHQ2dh60/4safpRyjgTe1+FodDTMuQH7te4PJ49xBI4hV0PIzCc/MLjEb8HwxiesiHVl/feV5f3lWYN19SV6EKPbt8G55cEQA30gL55nlsWlIvY48yDuHb9mypaIOV5B6yNRcCVsNkhImUqxwj+zI6+5KXxd15/YM17AtMvfgYKvwjwvP0Fa9l6Mor+/g64r0aUB7npvKMH7nT83LAkFIUuD3GXelHxGnji0sWPU/wJWpExq9fWleFoakcKmRf3YusUmKOf769D4bPKl1ZXqMWBnu4+U+41bBLe6ad+KQlq1Dfyw6P0mu+6dJM4yCfQOSVAy9hys2qZPGJ8nMock2LabG/E0wrgyry8owexrJEGZtG6cCJqnMHVINeXG6AyF3cOjodx4kLeFTYyzwyTyycPF1mQgkMTiSFM7lpwFCRV5d11K0ISZvHcOXwIj6blgboUO0hoNk/SKqiivMAfFjUuTnuvq6Jy84NJzAp277yhGEIE736yiaC5h5iF2KQdlZOmFGt6DOypNe2yq2U80RqMXlKydf9/o8p2vuwPgu7XNkgiSYfLMOVjeXMCA1Al5sqZgtT2J9HROBJfPj3D86RrK5ZyPGsTUmF0V3DhrhN/Pr2BIGAn/Tme+34g6xvw40tT4vjw6+Ljtzw3e4oMi3fIz36OBuVUYkwZvOVJy9OWMGCYJnxse1EWML62cmFfqhYIV/hCaKyAW56G/qw+HH3OO+R3e3iOZVIDa/m9TYzC4rMv8CIqLGLwZpXXMHuRIbD+uQm07x2mHm5AtaKTDhH0YgPCtTkU9yMUPXk4KAdS/P7noBrxP0n8lq44lkUuKOmoseWZwoThnbHS3ZUpr31toxEBAdO2ez7pBrm6e1/pUT88PCUR6vKPwdMrIs5ofPnqrZbf7kSQmILi2bFyAx2HUH/GJVvbiItetkyfFgFlde3X9pNecnNj0nK4KazC3AgGs0nktFJr/sQvtai+RO7TX4osdSkCydHHs/NL/vk88kUHvKuUtJCsnsvgP9nAAZaxfXIrm2Dk7y8j38yqQEHEsqyh6RnxdA5Fyy7CSprD4vSz/P7ekL9i2Sa+5HuH1L/U8AqZqS5joaVC8+3+V9ANw0ig9dm45CNoyr68Xnj4+1i2uRXL2ibniTytF7baXLbsz+U3bjK7zRI/CtGTrdw1NbsyPRKjIOLblyW/cvCOBZYXV9pG7wtHr57HdzjTYbbNNPUtvktlq2vpqXzp1Ckvu7h68bkbsyR0XxpGfiJb3A2mBrvImhacKOox8fVHLZ7dqt2uEQh14BeeWV5FzqvzadoZ41Ywsgye/86EuF07m/++R1pWVr1wgHvN166IaFNnXwSgXKxLN4vbRaH61ZOMmVlq33Pkakr2vTZ21oXt65fhwHOlrnqHP5ZqVwYIB9EUrnym3Su0Fa5FRl9kE+d+2G+Q5YOa+IVDcxNgtU6rZ54SFhJJelvgaS+tpuvQK+YEXi9rBwwAWu7F+ez0x77bG63eGlc7uSm/eIfpH1vUOVWYsxZanTBxPgLs6tbkT0ZHq02Er/1AaRXOG/kblM7NHwpk64N9eyEwFRXWFtCvyS/mpeqwF0oL10bld3IR4rLdLXBZtoYFFdw9Afv9TrhZFVqZlqUXMw+B1Ecud+kit93QCz2zejGdZ/jaapVnPmtbkk7920mzHYB/HSud2o2NzHUOC1T4GgDlqVyKoIrg+Z2/Kx3DAF6rmE/SY/ye28af6z+QMadX7CbJOzyqWkGKkbgOiArUmSfpF2bG4MOt9P53YX11ktxKXZshVlMk0ckqw0F+a0X4O+gIFWxh0NkPcdlUklBZFcx7OWUbw2HzrO091plxdM749P8hrhEa+1mdXxyKi1MwEWUOfXJmXtZ+d2JddJ56oTVaYnflNlV/uvHN25jMbdipVVNwA9Ueh183cdBK5mtHQQDaNzHSSXJDOzPFb1QR6DJ0611Te2MglgcbemrBSc1LJVTwfRuXi1YPN1pUbolMaRzKm3kyWSDkQXTJJriIbZEkRhJBerFojl/ASdHa+N6smPtxt+MWO0LJ5rsxHUILmw4E4eTQpX4mfn+kmuOtRtcshYWmp3bZKUDrqB3RvqRxb6DOMWrvUmK+jOvt3aQhKn07kqr2uUWlHCX3Y5d/Dl3tIEmuC40M9TofDiLsCDoSK2lcoH0bkCoRZ4PTee4cwLk7YkPLFmtb9QtWX6JxZQoGNwceFO7ogQexDJtasFm6/L7B2EYpeORLt+kM0bD+G32rWCJReKUqKaBXrp3CPJNXf7IMQy9YzmqKqX+Nahcw6913nEV/qiJrAaL4JysZeYw62nkNzY0otA1Li4S8SX5oBEi01eHRckAAONKdRqDEq7XT5jkrFeOre7uD9MHxRnxoFnqjcmaml3cKde/aLsJvauVtq3b1fN37vE0KnmOSZ/F0ZyQbVApENmTJnLp9fpeHMkZU9fOKODVY/tLBuwoYFORAZswmNUz+YwOheUXFt3kura+Xwad7F65XPRkhNe6CM30IZWNi/oItbNC4wMqXPVWGrTDsRE4XUM7Mqp23FLNwD9FyAPjRfNCzrQW4TG9dS5XcnV6tyILIV5TkzlmBn/gl/jOzxQmn/Vli307wM8tHdoMgmyy+VgOpdkM+2lD+jRl87NI5Z75t75ewcsK0ByofMPY+TpNS+d211ccSSB5hrmD/Jyinq8dETrysHqVfUj6l1QPFdvikFnP7BDZMNIbtf9lb4uZoAOZcK/M13EsxSfl6diF85Z6p28kb6FGwdUu0DWSgwRz5W/eoT92flN88T64DShiqlB1rHeEgN6swM1p+g2KkEk9zAqRrjjhG/W53ykJWPUht0m+q9GZ9pvAFY749qoeOrcIzv3QC3wYuS0tmr+cY/ZGDxx8Ijfcr1Do69RlD9Ff+PQLTDC6NzPV8eoWRhdevXZj536nmqZ6Deo6b32t+CbtwSJLTQemurE6fk7NzdrYvxIA++87FkVBXSoA3xfy+IcEEZy94ubFLn33HQq+uiGpYvVewywnwEJngm6WU8YnSudCOnrGjUCFUVhdKvwFV8a3HLEXYT+OQcCCznavAmkcyP564zWF00TQsy9rrd9ZshKq9chR9wBiI0AgQV8NXIQO3ceL1NjDbPcsXaVHjwzK+WRtaoDRj46+L47bfT1xUSfmnQYBhVEcvPC+LOY+Po+vDRbavnKfWDXB1GW4k4JdhgXWiUK5H0d+rN66dzu4m6Nvu6kpUst813GtIdH/P5z7XN2RejzuIn+WnP8ZPQgkmsiP+opZumkN+4zSyZymmO1h6b6AlLgRpnLTVsE0bkw+lOVxDKpwlbxZcTJI1ZAShSI6zl0FhlWchlwhooszJsPy62lQjBOHrGEAQk0wHbWxyG0BNG5ACKFq73VhOXmZVrebmr849dlUeNmuOyBcjyA8nIYwDec5Nq65ZKkMmaBqKbiEQ0v8boBOoWW6hfXoZtTkNiCBmrvlkt4NjP0JxvTPrP9OLptMniUp9KH0KASBw1+kmv73qqdR/NaI7H5RDWtkLU4OrA5YgF9BPDVXCRXu7g9JfftHr0m5m71Y1otH3yXV7nkCN0AtoXP9YsLV5seMYDOpWn21aDIiqX+i4oejc7JtLR7xPQeCM+O9CG+c+pcJlwbgfPyh3FvF5gzUAARovX3+Eb/hZl+QzijzlUNPFyTCpGlh59Uvd7jMqKf6x/NZUCAFBpgbwyuc6HQ9G4OhPs6RA+WaHdfj7i5DMRGG87I9Wn4wXWuXtBYVYJOgw3lEZt2n+NqUDxRZos35LrWYiO9WjiPzh2t/PuFyBW4Wpv29vEz0OoEQ8T1ZbmfjCuNeQPERs+hc/t0y92j5vybhHeS+vfQ5ZbqKqZxaoHi15PrXMr6DxFSJGbd8CY9Yt+PScw2LztW6oAuObXk0nsXy9ZAtLBZvbfewmtp8HBc6XGj31kG17kdyR2h6qxxGDucSuGtvDW7JdpwNAp41ntxg0iubwMhHUBa8AsGn4+0YB5LclQXCliHBd5qCRJbCLm4kW1xLzejCp/GakGM21q3NARYXGyJoySM5HobSceARxYPmXtGy4yuYLfTTa3/Jim+rC2IzrWcoHQhskuu5FV6xF7Rsivj6rbVKZD9NXa1afPtdC6/aS5qZts5A4XFOOahnXuc6r+JeER/bhA7N6RaQEmuYitWPtEy0wj2ScsJ5Ppvwkr0cxpGcsOpBbApvga/yT+GUcDtGVMP+loxOkd3tw4SW3Bv2gZjNcUOydOVu1MBj56TWvdQTIBCvBx9eu7bSe6RtcCMHrHPiQq4hzMVh6f3gBJSht7RvpvOPbIW8to8Ib85A+VCBA72u3w9DOAA3fm18UktgSQ3SGRhR/ehFbE9WubaX5vo+4UoDuugj+JTe1CtFnYEsXND6txo1ly0YdeRY2qu/3KOlsWAOlVq5mvlYuDACdrS/fbWwm5x1WlJU4MbKoBKRQhQ7dIDgwGw2sYTbKYnSGzBv632MV1r4aOXzIulNtSpfiSCmy5dfv10Aulm7CE/SHKNSnRID61rLXw16okLatINtFo3/TUxvED22OEpM2juG3YDB3SuZXE7OtfY48aRY8n9/Cp8aYzI0pGLR3wNLJzUup8fuNDvaIge53sAtWBuhTyk5HZjC60WU2qiV/PvdbjUlkFNQA5jig+AEbhBFkAv9DdQnWyChbcruSF17pGd2+rUEsnlNemGLX7i1BoaTvBljUGa+XWE2z6hoR+buaFOcUhrwSi5kqukhB7oHXmq751wxB1UIJ1/PfQJJLrmDf8D8ObIZwwcFd3dBec/jSraCbPkKmynJUdLVCImgrJ1m+pTdMEGQrh6uHcgJCzZTqRuaF7W5pySK1EddZu/6njNce19IuiXs69E8Kr5V10YLk0ZGWb/UaDSY0Cd+37soWmeClX/ZVC96QL11D5CD8CXvZBR4NAtMpOW6J28hrmu+v48dm6LKJnB0TKgf0KXBTSi4KuQP4YOFhwoZhPvU9Mzpu3xcyY7tw1PYI/4S2saAXo1HaTJogxolkjvF7j8/voG+JA9edk9A3msc8NtaAid+0G8mgNyNYHuSJsYMOsOJH8BSN6Yosb/SSzGI83LmBzep2NroflDAOzWwhcRB4agHMa2DDwAueDxl39L7gGlO05xT8fOeATskj35vPVtjyQ3oFpwkFxJrG98yXC9FiNouv3XDh2B8TOkYleQR+BMW8Mkffy6U0fxXO+65GNcJFey1urEN6RYQQm7gzu6AN1koL+IjohnRuGl8gt/eMRDSq42ngsCZGzQDZSgHOSBLXANaUx8lyaJ6sjavE/LRsySveY9snNDJiidJLfv4gICdZjJScAGGW/YPW1HtE6N6ZQPj/hIckOm1p0kl+h7ijPs4gJ92TYHaoXAtZG6Yn+YiCTG895jdq8emAEl9zj7O6jkQsmG0ZcHHEFRXXUPHfVhXBvHMdB5kUTdIHBQayGE5G4so/k+gUYVtHq+wrPmDPMnAWLLtNh53TUPg1oLmNjCJ5DkovOVUBfXw8BMAnf1Yg6n0nZEfGoc1bJ96/6g81kLoM7FNhqBapsOc5DkEV6OkXuhMC/NVm+Hs8QWdgCSu0FL7gNQH9I6OjWFZ2pTZBijBTdXubQZslbMS3Kf0ZJ79ajPa7TmyBFDyTRFTx0+ANd1fM+wdQtekmsdp/UBqn4cKNXdgYxjdCAZcFjoiPPFFsijfkNDSy6JO5/XULVPfwEW245J+eJxugjZaiOsznWzc4k+3urgmT50rJOGH20zwDT693Li18MP2XzyTPFcCam1IoX20OQV9OGFeecU6qICZ/8q2fXY1STR0719ZzsaZdCDd0c7t6/kAiXO4rb5cwNZmRL6eel37jCSHrHJZVPMnW09GFdrQb+h9V7cfNb8+QNAfTQw777VL7YGcw5dT6104xaDS64+e55XzZ8/gYv9FSz1bjYRF+Y8kKj9u94eQuLr7mMytM69WGmVKTtaXMvqUoGu5u9CzAfqt3J5A6yububy4JKrt7KYaP78BbH03+yxBLFFN+SplzF9gJq53FzsgMF1rr40hP1o/nxADAzl+GBTeKsGdSrZuLy0iL37eKhnQz9zeXjJ1S/useTKD7P4rKy69l6Ah9icI34b9WlCU+kraAbXufrF/ZU3fz4ETgV/0KfTD8lS4/KyFOhGbIFnBWRGDi65XfNkD2XNn1sQi2KQCN24YSTSI94YfBUpM4nrHBjzzOXBdS6gFnSSq9zg5u8gvsfpd5CpJQWfQ4WnEOaZy4NLrn7oGbC4Fy/m0i/FWPRouR5J3WB6OsYup5aiODNPqB9c517rr6CxFnZMra0hL1+VYeovvbaR/diLR8p+No6dGV5y9fXJGidiD1QB1YLmamygL9KTMj4eSMWTFMIWtxhc5wKxBWBxbY0LP5kUTz5h3j22PJBd8ZDpI2Iy3fCS27ynTZ42f+4Qm+c7HUDz4qV5kzvyidb+sA+eze5gRJ4qChXFHzC4zgVCjsARVKheWgerSrcTyYfYZkTlFexUKIsZNaRoaMmNgMUFTpRcQ6fXtKgGc947G781e8Sqj4dubTg++zm0zv2pj9NW+moPYjieo+OXXF7v1X2wrJK0eo97nEUP0tdFia1kYMl9v9Indivt2JMIaMFg4K3PgMIHi0e8kVZv89IGnrlUnAysc6MYSK3rteV6jt3PDujjEdu6Vm/Sw4vbRo90j/0PLLkRcF4QGLNs8NNhpNXbwyOOr4GKqz00n32u0J1l5rIo5+3QxcA6F+qQV+iLiHymGitEM0jfByK9AePHSsWjLh5fz4xLK2/xS9F+8AaWXA4oUb0l9tMoRCZ6esSVcVbiTvEkM/a7+b86qHx6oui0dQv6Zh5QC+L/eS/uJd0N0vckWjymRhswr26Eaebydt+31bWyvKfkAsXPr9rO5NEUa0BqOT4tiec9Lk2xQzPSWXzarWKQihu0zgVujqaDuSJa9lpcuVkX7dOSLhD0ELIurHpqejacVnJ5qQ0cUb0lBhSsOiA9YuwzdYzNI9ZDD3rauVaW99O5ib4EDCgLhdrDMoeRoqxlmDrCV666QVlqzZslrvW5/SRXf2+gEiIgt05Ll5mXvQYUktjUuvoYVraqdU5aKwaUOEIfGuvNXJZFcY0rtt1Bq8LfI9ZXd+jpzotyPofWS3K7u+cHub7/cKIP5D2rW5HMHHTDuMpwzUx0EOkRYz5KUwUVRHKROhdqCQCVygN22/OuCp0nM2wwSv5wJvyLF1VnS7sayuu462WeVHJfAG82/2py0yLT56RYc/9jp1HkozL76Z0Hsmby8vRaIyCuJyj76NwEsKygHq4ZcC8+Xv7OawfdQMXKVzcQqOHZni0F5lC5nqDsIbmkBrKj0JHeR/1zf9B4gScOlv544ucRR+vUaJH9Bmcun87OjQAj9/KyBh5XveSOW+f8iFu0ushQz9gBZGq2TOgINvVOaOeWQKjjoGlbG31fi865LFu7yQ4Tt7pTYjthZcwrnczOjaBjv/Cd0Z8B3rROW0qkbDnEINjcwamQS2uu8U9NT8LprIUr/X2RnwgaSSvt79KchY2yymVnS5FWr9ToxrvGRGHO5QexFjA6N4FEAG4MpFcLG81xzYgsHZIWcNfMFrwcGa/JpONnkkT5tU5kLQC3RQIftq31Dpr2LGwk9x1bqdYXG2HNES9q806Zp/ZocRBrwa5z4RL8CTzBE5DcG93iSqaW3FeLV7ijrsJm4+m6Qh5zImuBgHWahrfqK0K2FdDWUeoGSzXoIZTN4RxxbB6UcSlq1Ai808QWCHi6gV43L9EAeGhz+MPkswxpHw1ipn+y49JSU6qmsGM4jeROIWNxPDLczEd9RYjx/vPSwW5Q0Zau9BL+dGO8AhuhY0AnyaFBcVz5TU2qC5Dcj8CNHm45A9WGtbtmyq+apGYboXI443MKO9fQVuWHaaGAlhbmxVUf5+gRfy0vSSwNYl08kECSa9a5RH86SkEL060E3vds7e//8OiQqFBTOvYnosjV2hjEpK41lCeQ3BjouisRUFhhBxBF3dgb0D9ICWxejUB6Wur7qxiQUWwRlm2b4XUuKYF+0fLrmreGhd7rsrxrT7Q2RwXajO+zJDPfDyac69Zx3fY/8ZBcUsM9P8TU9GEXsb7S7RnVdDC6SlySmLkwWxm0wA93/mRoOxe2cOVnWVaJlNpbOZ4hf+fUyeo1gbZs2wxt55rOf1aWcg3AysCP9rONJETCfnhmN4eN5xoMBblItq6X0LtzfJdiS1cQFN7VqNGwOte4tva+sMA4H7MB1yG+Tk3Fnlb61FEPGs81ngkX9ocbSl64jXjht8xbelnlqREkEc86e3lAyTXqBPke+7cmQLnA3E2WeAy36jbTs1Jn0gmOhNO5lj4fmBbZ70BRjXMXXbcccQOt0rWD/mlztS7mR3tpMMm9ejTJ7Vhf7twBCkp4dCIl2fzZ6djVmPWrjtT9+kA6l/CV9jZ8gOw7BzSEpQh93UX+XkCDa+lX11vqZ3cGklzLKfB2YQcMMPrgkmLkvk0kv/zMHE38gvapSF9kBaCDguhcy8BrlKWwAzr7u/XawyN1Bqq5ghEVJ2ve44w6SwF9SADJfee2zRk9fwuKl1+iZ0y1iZL63poj9vR198TlHLb7+utcuTPDl9/BVmi5gA5L2cISMJY+mb+ZuW+FEdVByPTb+0ouor8yxsL9YAHpF/9RkSSBVKKix8lLqXVmG6Pa6adzCamF+WSnXFvsOBQFAbrzS1MXq1mOgSvFpa/rfdOidWHT6LnRboYkt1GB8lubjNsddO6yLBE0sdOv6f4HvNSdN+/V/w1j6QljrBTSucXi4uLh5cn0vH1QLZ1ErhsS/eC38ySZFkTjEffsXGi0PfeY1QKocxdy3dMczOd8Ia4dH2ew7z5wkAKLfMoONQ6tCre7fghPClQHIfOAD0hyb8oyHaEun1kKA49I5sB1f/irxz27M1Dq1m2pyut6Ly2Jbb1oPzB38ofmREyQAX+PbuuQkyYVfR+tqyCLrEznQlSz2j9mu9PfuF9v6QQOSO4lRmglonaVW+mSLIGd/ZL1MBg+INNllj35+2MXixqz0ez5msytBd39T4ufeQ71v7h8ww3ENRJJmv/pgbRsHbJIzOLz81unJmptPJtgg12EXq1JuKEx+rpdJjaVaCiesTH2bZlEgG5ZEp/haMFQcyDwS0uFNZ7i3kTtg2f/7TgCayQ3yr4+D+9kOkPuYwpMlRloF9mQlrC/boPzRbn3JI6ekGVq7Zb7Bb2/Rjxj1+idsU1fZxUSkS2+PiQkZPpoi04d8JbPUFVmjn0rG6h/gHAP0BtA4hJhCwbP5sYu/W2eiyluxBqo/UzQ+76+1BV8kKTfM+GDS+8QFQy6RvZMhsvvDeRl70eXLOGncOIfyfJBdcvFZ5HpHG/aQxUwBqjhQBIeYpgXUZ1yU+O1eMPv6aNVgh90C2S6DeRlD9fygGUO/iR671E560fseNri0UFlmebxamGddkX+PABBDcVmFuYGWlBzIPD7+ZbmtdN4Zu5WjkmZS0LHTAQUPO7YWCIiYUiKuYN7OnedmgSGULSI0kHh2DGFjPrUGeCIHH3d1Dny7jBXgOapf+2lFjCuq2Dl3ZB6l5AktUyGOcQn8k5qbEhs+yZd6dC/1liQ+oZzgvx4T2ZOvm7mscMax0gfIkrjcXtPwFYjO/rkacw4zIGQUFv3EACU9Uxz0aMdu5Fua4g2m6qvH6iFkEx0m+YboL6WC8Y9Y+rc8VDqz9yrWHpD4VeXZ7P8Eh1HyIvaMwbKrYGgPC2z6TBSu8dcqy49Fv/CAy1uvi4T3nEO8yxTynJpH/SI2aKwGdrMs/gRgK9cNIJY3XnfWpMptBVFnfQZlItlAdTffED7DJ3r4Orr9qg7vUgA756O0ltpHZzCR5J0Dx8dkbd7L/tC+NQlXch+PPZxmIi+g5p8GvwHG3sQQdXQn7Ac0zfJRlyMELVZHwi/CcGfQAGx/nUvbiDG9cgntJ/qJYlLjzJp2SbejXl3gFPlt6euHSAIV2bSZ1I6uVq7HHZ37R6iAQxKvbmfq+nJCyLwx/znhKt9zP4BH9CZj6/bhkPtWU+tFRQc05qNSh/cXaR4UrskyOSHBLD9ljngpQD9pIclThGZlu1vdpNxh1npRM1JdzFsA0U6Oej5+p/76EOCazlK8yqtsZYZT8pUTFyWVmqE5r19IOC5sm1xlsV9T9BlVcolV/6N4XtKiY2TunTplqW0egiLT354DFruwtriayCm6JaY2zeWV8rLIReaBY6iB55khWD7GnM0o56W7SfAKCgJLX82rzk5+NWV0ImoqllR1HWSxPFiwe+4FNZEimuRptXcPElSQ96je0iHGtrNrOW8Q2JM+wCwUZXO5CIrZmn6w3lVd/TpHtIBGiYrodXZKjjVCWNsYuQQSjeUbRh7o4xu/Co2RY/uIV0WcNWo8G+kEQLuO2qvB1T0OAh4hEk+UuPJn+GJXItU+qISrwHlCTq+o0B1UhmUn0iDNxBvaa0dZe8JSQQ43JaepM7FyPuF8QR6WHp1D9Fg7KwBz3c4JcQl790DygpzV09XImBO4Q52fsHdwROXAKEvrFcWR4NcW0PI+JxmWBteOnTK9YKJAOcJW0RA+9o9/U7kh4UMvK+JoPuYgsQmB/PtmyiFhoVLDaIjokiCm5yJsXuVuRXOGYiLfJDlZSGdhgaeGFN0tGcniQF4mN4OYJVtbsJLEXk87vJ4yPdSCg1xNgu+s1HRqyBBR1waay/o9zBxj7lauyQXcYQ6MtNAFoW5yjl/DK6GAhHdLZ0mUmJgIY/AkswyGv/tNvSTEhK+LO8Dr2+QHO8O+2yQ+zOGyDG886eUUVvvOBfUQMR+RTUKQtbmeVUSc3Osb0H0kmSOCUczVNz2/9VxKmz1Z/k5KhU8IOvbap4H29+kvdtrY+OJeTbzDnAC8veDEFVAk28R64t4yevbvX/HPMKzObXWqLOenRNOTMTjdV2XRSVA/42qvmJljTgcuhFp7bWzRUlZIRwcVp45s+NFxFUWPRWSvIX8F1VZZ8lddMHtpamSSXGdOKYnySLJUHElWtw1b/nTIFJHXHF+p6oVkmyZLZNkGi845w8/yb612J2lE/geytxqFghfphNUmvm7xMd7IpdS16ktLnC15FI73F6jKtB4spph+wxtwp6V+XZMZ7h1uLwcS+37ZKhAU89JPM0sE24Pobf/7bWVsjtDn4PYPE9y4AiTWthlPZNbKL7vWOgE3XfEcb4X21eglaXcFLNsvcweV2V5WxSpNLDR66pg/3m5VSz8injkNjfamSIOPfIOOH2HqfPAV36Z+le5wq9eKyt93vpPtG99INguzsHATxf/8yFJhT9L3Z/f52mYeC6i+Nbz+fZABTObz/1L4EFmriKggQ5W/FGQtXefYCeGaW7y3YkSVBynH6LHqMA/G1L7HZhAswl3suLPQw2Na9ZhCCarE/T++MZ4jVzFMUqzsx0y+y7w2lJl4AcbqjnYn4XjyFUUmz6Tmv9bqCRySOnNq9V/P7qIJnp3bBRggKoBl/+WtgWPH4McGsoH6XH5x/POs5no5RPTfB6w59l/DEIW9b1Lr4sWVPV0+ye0Bh4WWV147G6TqqiX/5bWDk9KVb2DTOdQNslFFaZH399ARB646tmCEWDVoWTK/8msA9KUIndJtu8yUgklx78+SmooY6pIqkrToijrXe+Xf3hB+GKZySWWemK/06k+tyrZXmfJ4jtpgouL/wMfkP0Axue4yQAAAABJRU5ErkJggg==;fontSize=14;" vertex="1" parent="1">
          <mxGeometry x="-10" y="-150" width="39.43" height="40" as="geometry" />
        </mxCell>
        <mxCell id="yXYll9jXDUxNb2Ua6R8a-110" value="" style="endArrow=classic;html=1;rounded=0;entryX=0.964;entryY=0.5;entryDx=0;entryDy=0;entryPerimeter=0;" edge="1" parent="1" source="yXYll9jXDUxNb2Ua6R8a-86" target="yXYll9jXDUxNb2Ua6R8a-90">
          <mxGeometry width="50" height="50" relative="1" as="geometry">
            <mxPoint x="790" y="-270" as="sourcePoint" />
            <mxPoint x="840" y="-320" as="targetPoint" />
            <Array as="points">
              <mxPoint x="1520" y="-120" />
              <mxPoint x="1270" y="-120" />
            </Array>
          </mxGeometry>
        </mxCell>
        <mxCell id="yXYll9jXDUxNb2Ua6R8a-111" value="" style="endArrow=classic;html=1;rounded=0;exitX=0.098;exitY=0.594;exitDx=0;exitDy=0;exitPerimeter=0;entryX=0.961;entryY=0.55;entryDx=0;entryDy=0;entryPerimeter=0;" edge="1" parent="1" source="yXYll9jXDUxNb2Ua6R8a-90" target="yXYll9jXDUxNb2Ua6R8a-96">
          <mxGeometry width="50" height="50" relative="1" as="geometry">
            <mxPoint x="500" y="-270" as="sourcePoint" />
            <mxPoint x="550" y="-320" as="targetPoint" />
          </mxGeometry>
        </mxCell>
        <mxCell id="yXYll9jXDUxNb2Ua6R8a-113" value="" style="endArrow=classic;html=1;rounded=0;" edge="1" parent="1" source="yXYll9jXDUxNb2Ua6R8a-96" target="yXYll9jXDUxNb2Ua6R8a-98">
          <mxGeometry width="50" height="50" relative="1" as="geometry">
            <mxPoint x="579.3199999999997" y="-118.32000000000016" as="sourcePoint" />
            <mxPoint x="560" y="-310" as="targetPoint" />
          </mxGeometry>
        </mxCell>
        <mxCell id="yXYll9jXDUxNb2Ua6R8a-114" value="" style="endArrow=classic;html=1;rounded=0;exitX=-0.025;exitY=0.505;exitDx=0;exitDy=0;exitPerimeter=0;entryX=1;entryY=0.5;entryDx=0;entryDy=0;" edge="1" parent="1" source="yXYll9jXDUxNb2Ua6R8a-98" target="yXYll9jXDUxNb2Ua6R8a-102">
          <mxGeometry width="50" height="50" relative="1" as="geometry">
            <mxPoint x="500" y="-270" as="sourcePoint" />
            <mxPoint x="550" y="-320" as="targetPoint" />
          </mxGeometry>
        </mxCell>
        <mxCell id="yXYll9jXDUxNb2Ua6R8a-115" value="" style="endArrow=classic;html=1;rounded=0;exitX=0;exitY=0.5;exitDx=0;exitDy=0;entryX=1;entryY=0.5;entryDx=0;entryDy=0;entryPerimeter=0;" edge="1" parent="1" source="yXYll9jXDUxNb2Ua6R8a-102" target="yXYll9jXDUxNb2Ua6R8a-105">
          <mxGeometry width="50" height="50" relative="1" as="geometry">
            <mxPoint x="500" y="-270" as="sourcePoint" />
            <mxPoint x="550" y="-320" as="targetPoint" />
          </mxGeometry>
        </mxCell>
        <mxCell id="yXYll9jXDUxNb2Ua6R8a-116" value="" style="endArrow=classic;html=1;rounded=0;exitX=0;exitY=0.5;exitDx=0;exitDy=0;exitPerimeter=0;entryX=1;entryY=0.75;entryDx=0;entryDy=0;" edge="1" parent="1" source="yXYll9jXDUxNb2Ua6R8a-105" target="yXYll9jXDUxNb2Ua6R8a-107">
          <mxGeometry width="50" height="50" relative="1" as="geometry">
            <mxPoint x="500" y="-270" as="sourcePoint" />
            <mxPoint x="550" y="-320" as="targetPoint" />
          </mxGeometry>
        </mxCell>
        <mxCell id="yXYll9jXDUxNb2Ua6R8a-119" value="Text to Speech&lt;div style=&quot;font-size: 14px;&quot;&gt;eg. to French&lt;/div&gt;" style="image;aspect=fixed;html=1;points=[];align=center;fontSize=14;image=img/lib/azure2/ai_machine_learning/Speech_Services.svg;" vertex="1" parent="1">
          <mxGeometry x="-190" y="-149" width="68" height="68" as="geometry" />
        </mxCell>
        <mxCell id="yXYll9jXDUxNb2Ua6R8a-120" value="Audio Streamer" style="image;aspect=fixed;html=1;points=[];align=center;fontSize=14;image=img/lib/azure2/iot/Function_Apps.svg;" vertex="1" parent="1">
          <mxGeometry x="-350" y="-145" width="68" height="60" as="geometry" />
        </mxCell>
        <mxCell id="yXYll9jXDUxNb2Ua6R8a-121" value="" style="endArrow=classic;html=1;rounded=0;exitX=0;exitY=0.5;exitDx=0;exitDy=0;entryX=0.99;entryY=0.314;entryDx=0;entryDy=0;entryPerimeter=0;" edge="1" parent="1" source="yXYll9jXDUxNb2Ua6R8a-107" target="yXYll9jXDUxNb2Ua6R8a-119">
          <mxGeometry width="50" height="50" relative="1" as="geometry">
            <mxPoint x="120" y="-270" as="sourcePoint" />
            <mxPoint x="170" y="-320" as="targetPoint" />
          </mxGeometry>
        </mxCell>
        <mxCell id="yXYll9jXDUxNb2Ua6R8a-122" value="" style="endArrow=classic;html=1;rounded=0;exitX=-0.049;exitY=0.451;exitDx=0;exitDy=0;exitPerimeter=0;entryX=1.01;entryY=0.422;entryDx=0;entryDy=0;entryPerimeter=0;" edge="1" parent="1" source="yXYll9jXDUxNb2Ua6R8a-119" target="yXYll9jXDUxNb2Ua6R8a-120">
          <mxGeometry width="50" height="50" relative="1" as="geometry">
            <mxPoint x="120" y="-270" as="sourcePoint" />
            <mxPoint x="170" y="-320" as="targetPoint" />
          </mxGeometry>
        </mxCell>
        <mxCell id="yXYll9jXDUxNb2Ua6R8a-123" value="eg. French" style="editableCssRules=.*;html=1;shape=image;verticalLabelPosition=bottom;labelBackgroundColor=#ffffff;verticalAlign=top;aspect=fixed;imageAspect=0;image=data:image/svg+xml,PHN2ZyB4bWxucz0iaHR0cDovL3d3dy53My5vcmcvMjAwMC9zdmciIHhtbG5zOnY9Imh0dHBzOi8vdmVjdGEuaW8vbmFubyIgd2lkdGg9IjIwLjAwMDQ2MzQ4NTcxNzc3MyIgaGVpZ2h0PSIxNi42MzE1MTU1MDI5Mjk2ODgiIHZpZXdCb3g9IjAgMC4wMDAyNDE0MDk2NTI1MTcxNzcxNiAyMC4wMDA0NjM0ODU3MTc3NzMgMTYuNjMxNTE1NTAyOTI5Njg4Ij4mI3hhOwk8c3R5bGUgdHlwZT0idGV4dC9jc3MiPiYjeGE7CS5zdDB7ZmlsbDojNjY5ZGY2O30mI3hhOwkuc3Qxe2ZpbGw6IzQyODVmNDt9JiN4YTsJPC9zdHlsZT4mI3hhOwk8cGF0aCBjbGFzcz0ic3QwIiBkPSJNLjAxIDMuMzA2aDYuNjR2MS42N0guMDF6bS0uMDEgMTBoMCA5LjE3di0xLjY3SDB6bTAtNC4xN2g0LjE4SDEwbC0xLjY3LTEuNjZIMi41MSAweiIvPiYjeGE7CTxwYXRoIGNsYXNzPSJzdDEiIGQ9Ik0xMCA1LjM4NmEuNDIuNDIgMCAwIDEgLjQyLS4zNi40MS40MSAwIDAgMSAuNDEuMzZ2OS4xOGEyLjA5IDIuMDkgMCAwIDAgMi42MSAyIDIuMTYgMi4xNiAwIDAgMCAxLjU2LTIuMTFWMi4wNjZhLjQuNCAwIDAgMSAuMTktLjQuNDEuNDEgMCAwIDEgLjQ1IDAgLjQuNCAwIDAgMSAuMTkuNHY5LjE2YTIuMDcgMi4wNyAwIDAgMCAuODEgMS42NCAyIDIgMCAwIDAgMS44LjM3IDIuMTYgMi4xNiAwIDAgMCAxLjU2LTIuMTJ2LTIuOGgtMS42N3YyLjkyYS40LjQgMCAwIDEtLjE5LjQuNDEuNDEgMCAwIDEtLjQ1IDAgLjQuNCAwIDAgMS0uMTktLjR2LTkuMTdhMi4wOSAyLjA5IDAgMCAwLTIuNjEtMiAyLjE2IDIuMTYgMCAwIDAtMS41NiAyLjEzdjEyLjM3YS40LjQgMCAwIDEtLjE5LjQuNDEuNDEgMCAwIDEtLjQ1IDAgLjQuNCAwIDAgMS0uMTktLjR2LTkuMTdhMi4wNyAyLjA3IDAgMCAwLTQuMTEtLjM2IDIuNCAyLjQgMCAwIDAtLjA1LjQ2djJMMTAgOS4xMzZ6Ii8+JiN4YTs8L3N2Zz4=;" vertex="1" parent="1">
          <mxGeometry x="-580" y="-115" width="40" height="34" as="geometry" />
        </mxCell>
        <mxCell id="yXYll9jXDUxNb2Ua6R8a-126" value="" style="endArrow=classic;html=1;rounded=0;exitX=0.029;exitY=0.578;exitDx=0;exitDy=0;exitPerimeter=0;entryX=1;entryY=0.25;entryDx=0;entryDy=0;" edge="1" parent="1" source="yXYll9jXDUxNb2Ua6R8a-120" target="yXYll9jXDUxNb2Ua6R8a-123">
          <mxGeometry width="50" height="50" relative="1" as="geometry">
            <mxPoint x="-670" y="-270" as="sourcePoint" />
            <mxPoint x="-620" y="-320" as="targetPoint" />
          </mxGeometry>
        </mxCell>
        <mxCell id="yXYll9jXDUxNb2Ua6R8a-127" value="" style="endArrow=classic;html=1;rounded=0;exitX=0;exitY=0.5;exitDx=0;exitDy=0;entryX=1;entryY=0.5;entryDx=0;entryDy=0;entryPerimeter=0;" edge="1" parent="1" source="yXYll9jXDUxNb2Ua6R8a-123" target="yXYll9jXDUxNb2Ua6R8a-88">
          <mxGeometry width="50" height="50" relative="1" as="geometry">
            <mxPoint x="-670" y="-270" as="sourcePoint" />
            <mxPoint x="-620" y="-320" as="targetPoint" />
          </mxGeometry>
        </mxCell>
      </root>
    </mxGraphModel>
  </diagram>
</mxfile>
